<?xml version="1.0" standalone="no"?>
<!DOCTYPE svg PUBLIC "-//W3C//DTD SVG 1.1//EN" "http://www.w3.org/Graphics/SVG/1.1/DTD/svg11.dtd" >
<svg xmlns="http://www.w3.org/2000/svg" xmlns:xlink="http://www.w3.org/1999/xlink" version="1.1">
<metadata>
Created by FontForge 20161003 at Sat Sep  8 19:29:30 2018
 By www-data
Copyright (c) 1988, 1990 Adobe Systems Incorporated.  All Rights Reserved.Frutiger is a registered trademark of Linotype AG and/or its subsidiaries.
</metadata>
<defs>
<font id="FrutigerBlack" horiz-adv-x="611" >
  <font-face 
    font-family="FrutigerBlack"
    font-weight="900"
    font-stretch="normal"
    units-per-em="1000"
    panose-1="2 0 10 3 6 0 0 2 0 4"
    ascent="800"
    descent="-200"
    x-height="521"
    cap-height="698"
    bbox="-164 -222 1000 954"
    underline-thickness="50"
    underline-position="-175"
    unicode-range="U+0020-FB02"
  />
<missing-glyph horiz-adv-x="306" 
 />
    <glyph glyph-name=".notdef" horiz-adv-x="306" 
 />
    <glyph glyph-name=".null" horiz-adv-x="0" 
 />
    <glyph glyph-name="nonmarkingreturn" horiz-adv-x="306" 
 />
    <glyph glyph-name="space" unicode=" " horiz-adv-x="306" 
 />
    <glyph glyph-name="space" unicode="&#xa0;" horiz-adv-x="306" 
 />
    <glyph glyph-name="exclam" unicode="!" horiz-adv-x="444" 
d="M315 698h-186l26 -461h134zM138 0h168v162h-168v-162z" />
    <glyph glyph-name="quotedbl" unicode="&#x22;" 
d="M337 427h132v271h-132v-271zM142 427h132v271h-132v-271z" />
    <glyph glyph-name="numbersign" unicode="#" horiz-adv-x="612" 
d="M58 187h84l-26 -187h106l26 187h87l-26 -187h105l26 187h84v108h-69l15 110h84v108h-69l25 185h-105l-25 -185h-87l26 185h-106l-26 -185h-99v-108h84l-15 -110h-99v-108zM350 295h-87l15 110h87z" />
    <glyph glyph-name="dollar" unicode="$" horiz-adv-x="612" 
d="M266 120q-46 0 -94 8.5t-95 27.5l-13 -142q15 -6 39.5 -11t52.5 -8t57 -5t53 -2v-86h60v86q46 1 90.5 14t80 40t57 67t21.5 95q0 60 -19 99.5t-51.5 65t-75 39.5t-90.5 25v151q43 0 91 -11.5t82 -28.5l12 135q-35 17 -86.5 24t-98.5 7v85h-60v-85q-50 -2 -93.5 -15
t-76.5 -38.5t-52 -64t-19 -92.5q0 -48 20 -84.5t52 -62.5t73 -42t83 -22v-169zM279 445q-32 4 -55.5 21t-23.5 50q0 29 22.5 47.5t56.5 20.5v-139zM326 280q15 -3 30.5 -8t28 -13.5t20.5 -21.5t8 -31q0 -43 -23.5 -62.5t-63.5 -23.5v160z" />
    <glyph glyph-name="percent" unicode="%" horiz-adv-x="1000" 
d="M602 195q0 -45 9 -83t29.5 -65.5t54 -43t82.5 -15.5t82.5 15.5t54 43t29.5 65.5t9 83q0 43 -9 81t-29.5 66t-54 44t-82.5 16t-82.5 -16t-54 -44t-29.5 -66t-9 -81zM728 195q0 19 1 39.5t5.5 37.5t14.5 28.5t28 11.5t28 -11.5t14.5 -28.5t5.5 -37.5t1 -39.5t-1 -39.5
t-5.5 -38t-14.5 -28.5t-28 -11t-28 11t-14.5 28.5t-5.5 38t-1 39.5zM253 -22h110l381 742h-109zM48 503q0 -45 9 -83t29.5 -65.5t54 -43t82.5 -15.5t82.5 15.5t54 43t29.5 65.5t9 83q0 43 -9 81t-29.5 66t-54 44t-82.5 16t-82.5 -16t-54 -44t-29.5 -66t-9 -81zM174 503
q0 19 1 39.5t5.5 37.5t14.5 28.5t28 11.5t28 -11.5t14.5 -28.5t5.5 -37.5t1 -39.5t-1 -39.5t-5.5 -38t-14.5 -28.5t-28 -11t-28 11t-14.5 28.5t-5.5 38t-1 39.5z" />
    <glyph glyph-name="ampersand" unicode="&#x26;" horiz-adv-x="778" 
d="M587 377q-2 -34 -12 -67t-34 -59q-59 57 -120 111q28 16 55 33t48 38t34 46.5t13 58.5q0 49 -20.5 82t-54.5 53t-77.5 28.5t-89.5 8.5q-41 0 -82.5 -9t-74.5 -28.5t-54 -51.5t-21 -78t21 -83t63 -70q-65 -30 -101 -73.5t-36 -116.5q0 -54 22.5 -94t59.5 -66t84.5 -39
t97.5 -13q57 0 114.5 13t102.5 52q11 -12 21 -25.5t21 -27.5h199l-124 138q49 48 76.5 110t30.5 129h-162zM214 204q0 38 17 59t46 37q40 -37 78.5 -74.5t76.5 -79.5q-26 -20 -50 -29t-56 -9q-21 0 -41 6.5t-36 19t-25.5 30t-9.5 40.5zM257 534q0 26 21 44t53 18t55 -15.5
t23 -46.5q0 -17 -8.5 -31t-21.5 -25.5t-27.5 -21t-27.5 -16.5q-11 8 -22.5 18t-21.5 22t-16.5 25.5t-6.5 28.5z" />
    <glyph glyph-name="quotesingle" unicode="'" horiz-adv-x="333" 
d="M101 427h132v271h-132v-271z" />
    <glyph glyph-name="parenleft" unicode="(" horiz-adv-x="389" 
d="M228 756q-69 -100 -114 -212.5t-45 -235.5q0 -125 41.5 -236.5t115.5 -211.5h142q-61 103 -99 215t-38 233q0 123 39 234t105 214h-147z" />
    <glyph glyph-name="parenright" unicode=")" horiz-adv-x="389" 
d="M161 -140q69 100 114 212.5t45 235.5q0 124 -42 237.5t-117 210.5h-147q65 -101 104.5 -214t39.5 -234t-39.5 -233.5t-104.5 -214.5h147z" />
    <glyph glyph-name="asterisk" unicode="*" 
d="M135 372l98 -71l72 128l67 -129l101 73l-102 103l144 25l-37 117l-130 -64l20 144h-122l21 -146l-133 66l-38 -116l142 -27z" />
    <glyph glyph-name="plus" unicode="+" horiz-adv-x="600" 
d="M47 190h190v-190h126v190h190v126h-190v190h-126v-190h-190v-126z" />
    <glyph glyph-name="comma" unicode="," horiz-adv-x="306" 
d="M2 -109h137l98 271h-168z" />
    <glyph glyph-name="hyphen" unicode="-" horiz-adv-x="333" 
d="M31 203h271v132h-271v-132z" />
    <glyph glyph-name="period" unicode="." horiz-adv-x="306" 
d="M69 0h168v162h-168v-162z" />
    <glyph glyph-name="slash" unicode="/" horiz-adv-x="278" 
d="M-21 -12h126l194 722h-126z" />
    <glyph glyph-name="zero" unicode="0" horiz-adv-x="612" 
d="M306 -12q87 0 140 31t82 81.5t39 115.5t10 133t-10 133t-39 115.5t-82 81.5t-140 31t-140 -31t-82 -81.5t-39 -115.5t-10 -133t10 -133t39 -115.5t82 -81.5t140 -31zM306 114q-32 0 -50 21t-27 55t-11.5 75.5t-2.5 83.5t2.5 83.5t11.5 75.5t27 55t50 21q31 0 49.5 -21
t27.5 -55t11.5 -75.5t2.5 -83.5t-2.5 -83.5t-11.5 -75.5t-27.5 -55t-49.5 -21z" />
    <glyph glyph-name="one" unicode="1" horiz-adv-x="612" 
d="M280 0h186v698h-164l-237 -154l83 -126l132 94v-512z" />
    <glyph glyph-name="two" unicode="2" horiz-adv-x="612" 
d="M42 0h505v132h-276l50 43q25 21 61 56.5t70 79t58 93.5t24 101q0 52 -20 90.5t-55.5 64t-85 38t-107.5 12.5q-31 0 -81.5 -7t-125.5 -34l7 -145q16 9 38 18t47 15.5t50 10.5t48 4q42 0 70.5 -20.5t28.5 -67.5q0 -35 -28 -77t-72 -87.5t-98.5 -93t-107.5 -93.5v-133z" />
    <glyph glyph-name="three" unicode="3" horiz-adv-x="612" 
d="M72 544q30 14 72.5 21t89.5 7q21 0 42.5 -3t38.5 -12t28 -24.5t11 -40.5q0 -21 -12 -36t-29 -24t-37 -13t-36 -4h-38t-42 2v-124q17 1 36 1.5t42 0.5q16 0 38 -2.5t42 -10.5t33.5 -24t13.5 -43t-14.5 -44.5t-35.5 -27t-45.5 -13.5t-45.5 -4q-50 0 -94.5 6.5t-78.5 26.5
l-9 -147q38 -14 91.5 -19t112.5 -5q51 0 105 9.5t98.5 34.5t73 66.5t28.5 106.5q0 66 -38 106t-101 53v2q58 16 93 54.5t35 98.5q0 57 -24.5 94t-63.5 58.5t-88 30t-98 8.5q-58 0 -106.5 -7.5t-96.5 -21.5z" />
    <glyph glyph-name="four" unicode="4" horiz-adv-x="612" 
d="M320 0h174v133h99v126h-99v439h-206l-280 -417v-148h312v-133zM332 259h-192l190 295h2v-295z" />
    <glyph glyph-name="five" unicode="5" horiz-adv-x="612" 
d="M75 323q38 10 76 13.5t76 3.5q28 0 55.5 -5t49.5 -17t36 -31.5t14 -48.5q0 -33 -12.5 -55t-32.5 -34.5t-45.5 -17.5t-50.5 -5q-45 0 -87.5 9t-82.5 29l-3 -151q43 -11 89 -18t98 -7q58 0 113.5 12.5t98.5 42.5t69 79t26 122q0 58 -22 99t-58.5 67t-85 38t-101.5 12
q-9 0 -22 -1t-33 -3v116h295v126h-455z" />
    <glyph glyph-name="six" unicode="6" horiz-adv-x="612" 
d="M530 678q-40 16 -83.5 24t-97.5 8q-87 0 -146 -31t-95 -84.5t-51.5 -124.5t-15.5 -151q0 -66 14 -125.5t45.5 -105.5t82.5 -73t126 -27q58 0 106 18.5t82.5 51t54 75.5t19.5 91q0 47 -14.5 87t-42 69.5t-66 46.5t-86.5 17q-53 0 -89.5 -18t-61.5 -53h-2q0 46 8.5 84
t27 65t49.5 41.5t78 14.5q51 0 87.5 -11t59.5 -26zM217 215q0 20 5.5 38.5t17 33t28.5 23t40 8.5q24 0 41 -9t27.5 -24.5t15.5 -35.5t5 -42q0 -41 -22.5 -70t-66.5 -29q-45 0 -68 32t-23 75z" />
    <glyph glyph-name="seven" unicode="7" horiz-adv-x="612" 
d="M102 0h200l250 547v151h-502v-132h312z" />
    <glyph glyph-name="eight" unicode="8" horiz-adv-x="612" 
d="M51 509q0 -26 9.5 -49.5t26 -43t38.5 -34t46 -22.5v-2v1q-28 -8 -53 -21.5t-44 -34.5t-30 -49.5t-11 -66.5q0 -54 21.5 -91.5t58.5 -61.5t86.5 -35t105.5 -11q55 0 104.5 11.5t87 36.5t60 65t22.5 96q0 39 -11.5 67.5t-30.5 49t-45 33.5t-54 22v2q23 9 44 23t36.5 33.5
t25 45.5t9.5 58q0 46 -18 80t-50 56t-76 32.5t-96 10.5t-99.5 -10.5t-83.5 -34t-57.5 -62t-21.5 -94.5zM399 204q0 -43 -28 -66.5t-68 -23.5q-37 0 -63.5 24.5t-26.5 62.5q0 41 23.5 64.5t57.5 39.5q18 -5 36.5 -13t33.5 -19.5t25 -28.5t10 -40zM219 508q0 36 24 59t58 23
q15 0 30 -4.5t27 -13.5t19.5 -23t7.5 -33q0 -35 -21 -57t-58 -43q-16 7 -31.5 15t-28 18.5t-20 24.5t-7.5 34z" />
    <glyph glyph-name="nine" unicode="9" horiz-adv-x="612" 
d="M82 20q40 -16 83.5 -24t97.5 -8q87 0 146 31t95 84t51.5 124.5t15.5 151.5q0 66 -14 125.5t-45.5 105.5t-82.5 73t-126 27q-58 0 -106 -18.5t-82.5 -51t-54 -75.5t-19.5 -91q0 -47 14.5 -87t42 -69.5t66 -46.5t86.5 -17q53 0 89.5 18t61.5 53h2q0 -46 -8.5 -84t-27 -65
t-50 -41.5t-77.5 -14.5q-51 0 -87.5 11t-59.5 26zM395 483q0 -20 -5.5 -39t-17 -33t-28.5 -22.5t-40 -8.5q-24 0 -41 9t-27.5 24.5t-15.5 35.5t-5 42q0 41 22.5 70t66.5 29q45 0 68 -32t23 -75z" />
    <glyph glyph-name="colon" unicode=":" horiz-adv-x="306" 
d="M69 359h168v162h-168v-162zM69 0h168v162h-168v-162z" />
    <glyph glyph-name="semicolon" unicode=";" horiz-adv-x="306" 
d="M2 -109h137l98 271h-168zM69 359h168v162h-168v-162z" />
    <glyph glyph-name="less" unicode="&#x3c;" horiz-adv-x="600" 
d="M553 514l-506 -208v-106l506 -208v122l-341 139l341 139v122z" />
    <glyph glyph-name="equal" unicode="=" horiz-adv-x="600" 
d="M47 305h506v126h-506v-126zM47 75h506v126h-506v-126z" />
    <glyph glyph-name="greater" unicode="&#x3e;" horiz-adv-x="600" 
d="M47 -8l506 208v106l-506 208v-122l341 -139l-341 -139v-122z" />
    <glyph glyph-name="question" unicode="?" horiz-adv-x="556" 
d="M69 541q73 37 157 37q18 0 37.5 -4t35.5 -13t26.5 -22.5t10.5 -32.5q0 -33 -20 -61.5t-44.5 -58.5t-44.5 -65.5t-20 -83.5h146q3 33 16 59t31 49t38.5 43.5t37.5 43.5t28.5 49.5t11.5 60.5q0 47 -22 79t-57 52t-78 28.5t-84 8.5q-54 0 -106.5 -6.5t-103.5 -22.5zM196 0
h168v162h-168v-162z" />
    <glyph glyph-name="at" unicode="@" horiz-adv-x="800" 
d="M392 235q-42 0 -63 27.5t-21 68.5q0 20 6.5 39t18.5 34t29.5 24t39.5 9q38 0 60.5 -26t22.5 -67q0 -48 -24.5 -78.5t-68.5 -30.5zM613 137q-32 -23 -80 -38t-111 -15q-60 0 -110 17t-86 50.5t-55.5 82.5t-19.5 113q0 58 18.5 107t52 84.5t81.5 55.5t107 20
q134 0 196 -59.5t61 -167.5q0 -39 -8.5 -67t-20.5 -45.5t-27 -26t-29 -8.5q-8 0 -10.5 5.5t-2.5 13.5t3 21.5t7 33.5l34 209h-94l-9 -47q-22 30 -52.5 43.5t-67.5 13.5q-43 0 -78 -17t-60 -44.5t-38.5 -64t-13.5 -75.5q0 -42 12.5 -77.5t33.5 -61t49 -40t59 -14.5
q30 0 56.5 14.5t44.5 34.5h2q1 -25 16 -37t35 -12q14 0 38.5 5.5t52.5 18t57.5 33t53 51.5t38.5 73.5t15 97.5q0 67 -28 121t-75 92t-110 58.5t-132 20.5q-83 0 -153 -27.5t-120.5 -76t-79 -114.5t-28.5 -143q0 -79 29.5 -145t81.5 -114t123 -75t153 -27q91 0 164.5 38
t126.5 111h-102z" />
    <glyph glyph-name="A" unicode="A" horiz-adv-x="778" 
d="M8 0h189l55 149h262l52 -149h204l-269 698h-228zM470 281h-175l90 273h2z" />
    <glyph glyph-name="B" unicode="B" horiz-adv-x="667" 
d="M60 0h294q47 0 95.5 8t87.5 30.5t64 61.5t25 102q0 125 -141 154v2q59 20 91 58.5t32 104.5q0 45 -17 78.5t-47.5 55t-72 32.5t-90.5 11h-321v-698zM246 296h57q24 0 48.5 -2.5t44 -10.5t32 -25t12.5 -45q0 -27 -12 -43t-32 -24.5t-45 -11t-50 -2.5h-55v164zM246 566h54
q23 0 45 -2t39 -9t27.5 -21t10.5 -38q0 -22 -11 -36.5t-28.5 -22.5t-39.5 -11.5t-45 -3.5h-52v144z" />
    <glyph glyph-name="C" unicode="C" horiz-adv-x="667" 
d="M638 162q-38 -15 -83 -25.5t-91 -10.5q-51 0 -94 15t-73.5 43.5t-48 69.5t-17.5 92q0 49 15.5 90.5t44 71.5t68.5 47t90 17q48 0 92.5 -12t89.5 -37l15 151q-51 15 -102 25.5t-105 10.5q-86 0 -159.5 -22.5t-127 -68t-83.5 -114t-30 -159.5q0 -99 36.5 -167.5t94 -110.5
t129 -61t141.5 -19q71 0 119 9t88 19z" />
    <glyph glyph-name="D" unicode="D" horiz-adv-x="778" 
d="M65 0h254q89 0 165 18.5t131 60t86 108.5t31 165q0 101 -30.5 168t-85 106.5t-130.5 55.5t-167 16h-254v-698zM251 560h72q103 0 160 -53t57 -158t-56 -158t-161 -53h-72v422z" />
    <glyph glyph-name="E" unicode="E" 
d="M60 0h503v132h-317v158h289v132h-289v144h306v132h-492v-698z" />
    <glyph glyph-name="F" unicode="F" horiz-adv-x="556" 
d="M60 0h186v281h269v132h-269v153h281v132h-467v-698z" />
    <glyph glyph-name="G" unicode="G" horiz-adv-x="778" 
d="M710 408h-289v-132h109v-138q-26 -12 -66 -12q-51 0 -94 15t-73.5 43.5t-48 69.5t-17.5 92q0 61 21.5 104t59 70t87.5 39.5t107 12.5q33 0 79.5 -9.5t90.5 -35.5l15 152q-26 10 -55.5 16t-58.5 9.5t-54.5 4.5t-42.5 1q-96 0 -177 -20t-139.5 -63.5t-91.5 -112.5t-33 -168
t36.5 -167.5t94 -110.5t129 -61t141.5 -19q48 0 114.5 4.5t155.5 27.5v388z" />
    <glyph glyph-name="H" unicode="H" horiz-adv-x="722" 
d="M65 0h186v299h220v-299h186v698h-186v-267h-220v267h-186v-698z" />
    <glyph glyph-name="I" unicode="I" horiz-adv-x="334" 
d="M74 0h186v698h-186v-698z" />
    <glyph glyph-name="J" unicode="J" horiz-adv-x="444" 
d="M14 7q24 -6 54 -12.5t61 -6.5q71 0 119 18.5t77 52t41.5 80t12.5 102.5v457h-186v-401q0 -43 -7 -72t-20 -47t-30 -26t-38 -8q-48 0 -84 17v-154z" />
    <glyph glyph-name="K" unicode="K" horiz-adv-x="722" 
d="M65 0h186v317h2l217 -317h237l-278 373l258 325h-224l-210 -285h-2v285h-186v-698z" />
    <glyph glyph-name="L" unicode="L" horiz-adv-x="556" 
d="M65 0h474v138h-288v560h-186v-698z" />
    <glyph glyph-name="M" unicode="M" horiz-adv-x="1000" 
d="M60 0h182l-4 536h2l170 -536h171l178 536h2l-3 -536h182v698h-282l-155 -464h-2l-148 464h-293v-698z" />
    <glyph glyph-name="N" unicode="N" horiz-adv-x="778" 
d="M68 0h171l-6 477h2l244 -477h231v698h-170l3 -474h-2l-236 474h-237v-698z" />
    <glyph glyph-name="O" unicode="O" horiz-adv-x="778" 
d="M39 349q0 -83 22.5 -150t67 -114t109.5 -72t151 -25q85 0 150.5 25t110 72t67 114t22.5 150q0 84 -22.5 151t-66.5 113.5t-109.5 71.5t-151.5 25t-151.5 -25t-109.5 -71.5t-66.5 -113.5t-22.5 -151zM231 349q0 45 9 85.5t28 71t49 48.5t72 18t72 -18t49 -48.5t28 -71
t9 -85.5q0 -43 -9 -83.5t-28 -71.5t-49 -49.5t-72 -18.5t-72 18.5t-49 49.5t-28 71.5t-9 83.5z" />
    <glyph glyph-name="P" unicode="P" 
d="M55 0h186v244h72q131 0 204 59.5t73 165.5q0 118 -76 173.5t-237 55.5h-222v-698zM241 566h48q24 0 45 -4.5t36.5 -15.5t24.5 -29t9 -45t-9 -45.5t-24.5 -30t-36.5 -16t-45 -4.5h-48v190z" />
    <glyph glyph-name="Q" unicode="Q" horiz-adv-x="778" 
d="M231 349q0 45 9 85.5t28 71t49 48.5t72 18t72 -18t49 -48.5t28 -71t9 -85.5q0 -43 -9 -83.5t-28 -71.5t-49 -49.5t-72 -18.5t-72 18.5t-49 49.5t-28 71.5t-9 83.5zM516 -132h210l-165 155q88 40 133 124t45 202q0 84 -22.5 151t-66.5 113.5t-109.5 71.5t-151.5 25
t-151.5 -25t-109.5 -71.5t-66.5 -113.5t-22.5 -151q0 -83 22.5 -150t67 -114t109.5 -72t151 -25h10z" />
    <glyph glyph-name="R" unicode="R" horiz-adv-x="667" 
d="M60 0h186v276h39q26 0 44.5 -6.5t33 -23.5t27 -46t26.5 -74l40 -126h194l-68 190q-13 32 -21.5 57.5t-18.5 45t-23.5 32.5t-35.5 19v2q68 16 101 61t33 115q0 45 -17.5 78t-48.5 55t-72 32.5t-87 10.5h-332v-698zM246 566h49q27 0 51.5 -3t43 -11t30 -23.5t11.5 -39.5
q0 -30 -13 -46t-32.5 -24t-44 -9.5t-46.5 -1.5h-49v158z" />
    <glyph glyph-name="S" unicode="S" 
d="M51 18q47 -15 103 -22.5t105 -7.5q58 0 113.5 10.5t98.5 36.5t69 70.5t26 112.5q0 63 -24.5 101t-61 61t-79.5 35t-79.5 23t-61 26t-24.5 43q0 23 13 36t32 19.5t40.5 8t39.5 1.5q40 0 79.5 -7.5t75.5 -24.5l12 144q-35 12 -82 19t-98 7q-53 0 -107 -10t-97.5 -34
t-71.5 -65.5t-28 -104.5q0 -64 24.5 -102t61 -60.5t79.5 -35t79.5 -25t61 -29.5t24.5 -50q0 -21 -9.5 -34.5t-25.5 -21t-37 -10t-43 -2.5q-58 0 -107 13t-85 33z" />
    <glyph glyph-name="T" unicode="T" horiz-adv-x="556" 
d="M185 0h186v560h172v138h-530v-138h172v-560z" />
    <glyph glyph-name="U" unicode="U" horiz-adv-x="722" 
d="M667 698h-186v-402q0 -35 -5.5 -65.5t-19 -54t-36.5 -37t-59 -13.5t-59 13.5t-36.5 37t-19 54t-5.5 65.5v402h-186v-433q0 -72 22 -124t62.5 -86t97 -50.5t124.5 -16.5t124.5 16.5t97 50.5t62.5 86t22 124v433z" />
    <glyph glyph-name="V" unicode="V" horiz-adv-x="722" 
d="M244 0h230l238 698h-191l-156 -548h-2l-155 548h-198z" />
    <glyph glyph-name="W" unicode="W" horiz-adv-x="1000" 
d="M163 0h241l92 536h2l99 -536h239l156 698h-181l-91 -536h-2l-98 536h-236l-94 -536h-2l-90 536h-190z" />
    <glyph glyph-name="X" unicode="X" horiz-adv-x="722" 
d="M10 0h211l134 257l135 -257h222l-224 367l204 331h-204l-120 -230l-117 230h-217l202 -331z" />
    <glyph glyph-name="Y" unicode="Y" horiz-adv-x="722" 
d="M269 0h186v263l256 435h-214l-135 -280l-137 280h-214l258 -435v-263z" />
    <glyph glyph-name="Z" unicode="Z" 
d="M570 698h-535v-138h323l-332 -412v-148h546v138h-344l342 412v148z" />
    <glyph glyph-name="bracketleft" unicode="[" horiz-adv-x="389" 
d="M352 756h-264v-896h264v114h-114v668h114v114z" />
    <glyph glyph-name="backslash" unicode="\" horiz-adv-x="278" 
d="M173 -12h126l-194 722h-126z" />
    <glyph glyph-name="bracketright" unicode="]" horiz-adv-x="389" 
d="M37 -140h264v896h-264v-114h114v-668h-114v-114z" />
    <glyph glyph-name="asciicircum" unicode="^" horiz-adv-x="600" 
d="M70 333h122l108 227l108 -227h122l-174 365h-112z" />
    <glyph glyph-name="underscore" unicode="_" horiz-adv-x="500" 
d="M0 -125h500v50h-500v-50z" />
    <glyph glyph-name="grave" unicode="`" horiz-adv-x="333" 
d="M246 585l-68 144h-187l129 -144h126z" />
    <glyph glyph-name="a" unicode="a" 
d="M562 0q-6 31 -8 61.5t-2 61.5v194q0 60 -20 101t-54 66.5t-79 37t-95 11.5q-58 0 -109 -8.5t-99 -28.5l3 -122q38 21 80 30t86 9q24 0 45.5 -4t38 -14.5t26 -27.5t9.5 -44q-17 3 -39.5 5t-44.5 2q-36 0 -82.5 -5.5t-88 -24t-70 -53.5t-28.5 -95q0 -42 16 -73t43 -51.5
t62 -30t74 -9.5q56 0 95 22.5t70 71.5h2q0 -20 1.5 -40.5t2.5 -41.5h165zM199 165q0 38 31.5 53.5t77.5 15.5q20 0 39.5 -1t36.5 -2q0 -23 -8 -45t-22 -39.5t-35 -28t-46 -10.5q-32 0 -53 15t-21 42z" />
    <glyph glyph-name="b" unicode="b" horiz-adv-x="668" 
d="M52 0h166v93h2q9 -22 26 -41t41 -33.5t52.5 -22.5t59.5 -8q58 0 102.5 22.5t74.5 61t45.5 89.5t15.5 109q0 47 -14.5 94t-43 84.5t-70 61t-95.5 23.5t-99 -17.5t-80 -61.5h-2v296h-181v-750zM451 266q0 -63 -29 -101.5t-80 -38.5q-23 0 -43 10t-35 28t-23.5 42t-8.5 53
q0 59 30 97.5t80 38.5q26 0 46.5 -10.5t34.5 -28t21 -41t7 -49.5z" />
    <glyph glyph-name="c" unicode="c" horiz-adv-x="500" 
d="M477 504q-31 15 -66.5 22t-76.5 7q-65 0 -120 -18.5t-96 -53.5t-64 -85.5t-23 -115.5t23 -115.5t64 -85t96 -53t120 -18.5q36 0 74.5 6t72.5 17l-4 134q-23 -12 -52 -18.5t-60 -6.5q-29 0 -56 9.5t-47.5 27.5t-32.5 43.5t-12 56.5q0 34 10.5 60.5t29 45t44 28.5t54.5 10
q32 0 58 -7t51 -22z" />
    <glyph glyph-name="d" unicode="d" horiz-adv-x="668" 
d="M616 750h-181v-296h-2q-35 45 -80 62t-99 17t-95.5 -23t-70 -60.5t-43 -84.5t-14.5 -95q0 -58 15.5 -109t45.5 -89.5t74.5 -61t102.5 -22.5q31 0 59.5 8t52.5 22.5t41 33.5t26 41h2v-93h166v750zM217 266q0 26 7 49.5t21 41t34.5 28t46.5 10.5q50 0 80 -38t30 -98
q0 -29 -9 -53t-24 -42t-35 -28t-42 -10q-51 0 -80 38.5t-29 101.5z" />
    <glyph glyph-name="e" unicode="e" 
d="M573 208v33q0 58 -14 111t-45 93t-81.5 64t-122.5 24q-61 0 -112 -18.5t-88 -53t-58 -85.5t-21 -115q0 -65 23 -115.5t64 -85.5t96 -53.5t120 -18.5q51 0 99 8t92 25v127q-41 -22 -81.5 -31t-77.5 -9q-66 0 -105.5 23t-47.5 77h360zM211 310q3 45 27 77t73 32
q54 0 77 -32t23 -77h-200z" />
    <glyph glyph-name="f" unicode="f" horiz-adv-x="444" 
d="M119 0h180v395h128v126h-128v32q0 38 14.5 60.5t49.5 22.5q20 0 33 -2t24 -6l11 124q-17 3 -40 6.5t-52 3.5q-54 0 -94.5 -11t-68 -35.5t-41 -64.5t-13.5 -98v-32h-109v-126h106v-395z" />
    <glyph glyph-name="g" unicode="g" horiz-adv-x="668" 
d="M608 521h-163v-94h-2q-29 48 -74 77t-103 29q-61 0 -105 -20.5t-73 -57t-43 -86t-14 -107.5t16 -106t46 -82.5t73 -54t97 -19.5t98.5 21.5t76.5 67.5h2v-28q0 -77 -41 -114t-119 -37q-56 0 -95.5 11.5t-80.5 31.5l-9 -142q32 -11 83 -22t116 -11q79 0 138 14t98 47
t58.5 87.5t19.5 134.5v460zM217 265q0 27 6.5 50.5t19.5 41t32 28t44 10.5q30 0 52 -11t36 -28.5t20.5 -39.5t6.5 -44q0 -30 -9 -54.5t-24.5 -42.5t-36.5 -27.5t-45 -9.5q-20 0 -38.5 8.5t-32.5 24.5t-22.5 40t-8.5 54z" />
    <glyph glyph-name="h" unicode="h" horiz-adv-x="667" 
d="M56 0h180v220q0 85 28 124t84 39q37 0 60 -29t23 -102v-252h180v325q0 40 -11 78t-35 66.5t-62 46t-91 17.5q-59 0 -102 -24t-72 -65h-2v306h-180v-750z" />
    <glyph glyph-name="i" unicode="i" horiz-adv-x="334" 
d="M77 0h180v521h-180v-521zM257 738h-180v-132h180v132z" />
    <glyph glyph-name="j" unicode="j" horiz-adv-x="334" 
d="M-25 -213q24 -5 48 -7t53 -2q52 0 87 15.5t56 44t29.5 68.5t8.5 89v526h-180v-521q0 -19 -1.5 -37t-7.5 -32.5t-18 -23.5t-33 -9q-9 0 -18.5 0.5t-19.5 2.5zM257 738h-180v-132h180v132z" />
    <glyph glyph-name="k" unicode="k" 
d="M56 0h180v258h2l144 -258h218l-196 282l181 239h-197l-150 -219h-2v448h-180v-750z" />
    <glyph glyph-name="l" unicode="l" horiz-adv-x="334" 
d="M77 0h180v750h-180v-750z" />
    <glyph glyph-name="m" unicode="m" horiz-adv-x="1000" 
d="M56 0h180v220q0 85 27 124t75 39q38 0 55 -29t17 -74v-280h180v220q0 85 27 124t75 39q38 0 55 -29t17 -74v-280h180v307q0 53 -7.5 95t-28 71t-56.5 44.5t-92 15.5t-104.5 -23.5t-80.5 -76.5q-21 51 -64 75.5t-99 24.5q-62 0 -112.5 -25.5t-77.5 -82.5h-2v96h-164v-521z
" />
    <glyph glyph-name="n" unicode="n" horiz-adv-x="667" 
d="M56 0h180v220q0 85 28 124t84 39q37 0 60 -29t23 -102v-252h180v325q0 40 -11 78t-35 66.5t-62 46t-91 17.5q-62 0 -112.5 -25.5t-77.5 -82.5h-2v96h-164v-521z" />
    <glyph glyph-name="o" unicode="o" horiz-adv-x="668" 
d="M334 -12q64 0 119.5 18.5t96.5 53t64 85t23 115.5t-23 115.5t-64 85.5t-96.5 53.5t-119.5 18.5q-65 0 -120 -18.5t-96 -53.5t-64 -85.5t-23 -115.5t23 -115.5t64 -85t96 -53t120 -18.5zM334 114q-31 0 -53 12t-36.5 32t-21 46.5t-6.5 55.5t6.5 55.5t21 47t36.5 32.5
t53 12t53 -12t36.5 -32.5t21 -47t6.5 -55.5t-6.5 -55.5t-21 -46.5t-36.5 -32t-53 -12z" />
    <glyph glyph-name="p" unicode="p" horiz-adv-x="668" 
d="M52 -210h180v283h2q26 -47 71.5 -66t93.5 -19q58 0 102.5 22.5t74.5 61t45.5 89.5t15.5 109q0 47 -14.5 94t-43 84.5t-70 61t-95.5 23.5q-62 0 -114.5 -25.5t-79.5 -80.5h-2v94h-166v-731zM451 266q0 -63 -29 -101.5t-80 -38.5q-23 0 -43 10t-35 28t-23.5 42t-8.5 53
q0 59 30 97.5t80 38.5q26 0 46.5 -10.5t34.5 -28t21 -41t7 -49.5z" />
    <glyph glyph-name="q" unicode="q" horiz-adv-x="668" 
d="M616 521h-166v-94h-2q-27 56 -79.5 81t-114.5 25q-54 0 -95.5 -23t-70 -60.5t-43 -84.5t-14.5 -95q0 -58 15.5 -109t45.5 -89.5t74.5 -61t102.5 -22.5q48 0 93.5 19t71.5 66h2v-283h180v731zM217 266q0 26 7 49.5t21 41t34.5 28t46.5 10.5q50 0 80 -38t30 -98
q0 -29 -9 -53t-24 -42t-35 -28t-42 -10q-51 0 -80 38.5t-29 101.5z" />
    <glyph glyph-name="r" unicode="r" horiz-adv-x="444" 
d="M437 527q-14 2 -29.5 4t-31.5 2q-59 0 -95 -29t-59 -79h-2v96h-164v-521h180v220q0 77 34 120t97 43q16 0 31 -0.5t30 -5.5z" />
    <glyph glyph-name="s" unicode="s" horiz-adv-x="500" 
d="M36 13q40 -13 84 -19t105 -6q44 0 87.5 7.5t78 27t56 53.5t21.5 86q0 49 -20 79t-49.5 47t-64.5 25.5t-64.5 16t-49.5 17.5t-20 30q0 11 7.5 18t19.5 11t26.5 5.5t29.5 1.5q34 0 72.5 -9t67.5 -26l14 125q-44 17 -90 23.5t-93 6.5q-39 0 -78.5 -9.5t-71.5 -30t-52 -52.5
t-20 -77q0 -47 19 -75t47.5 -44.5t61.5 -25t61.5 -16.5t47.5 -19.5t19 -33.5q0 -27 -22.5 -34.5t-50.5 -7.5q-49 0 -93 11t-76 25z" />
    <glyph glyph-name="t" unicode="t" horiz-adv-x="444" 
d="M10 395h103v-212q0 -47 8.5 -83t31 -61t61.5 -38t99 -13q34 0 60.5 3.5t52.5 6.5l-6 117q-14 -2 -27.5 -4.5t-27.5 -2.5q-43 0 -57.5 23.5t-14.5 71.5v192h126v126h-126v172l-177 -55v-117h-106v-126z" />
    <glyph glyph-name="u" unicode="u" horiz-adv-x="667" 
d="M611 521h-180v-220q0 -85 -28 -124t-84 -39q-18 0 -33.5 6.5t-26.5 22t-17 40.5t-6 62v252h-180v-325q0 -41 11 -78.5t35 -66t62 -46t91 -17.5q62 0 112.5 25.5t77.5 82.5h2v-96h164v521z" />
    <glyph glyph-name="v" unicode="v" 
d="M203 0h205l193 521h-179l-109 -371h-2l-108 371h-193z" />
    <glyph glyph-name="w" unicode="w" horiz-adv-x="944" 
d="M169 0h209l99 377h2l88 -377h209l159 521h-174l-82 -375h-2l-88 375h-216l-90 -375h-2l-84 375h-188z" />
    <glyph glyph-name="x" unicode="x" 
d="M9 0h203l86 162l87 -162h217l-174 267l163 254h-197l-81 -156l-77 156h-213l163 -256z" />
    <glyph glyph-name="y" unicode="y" 
d="M45 -210q55 -12 112 -12q62 0 102.5 22t68 58t46.5 82.5t38 95.5l191 485h-180l-107 -340h-2l-112 340h-194l211 -533q-10 -35 -34 -53.5t-57 -18.5q-19 0 -36 2.5t-35 8.5z" />
    <glyph glyph-name="z" unicode="z" horiz-adv-x="500" 
d="M26 0h448v132h-242l238 245v144h-439v-132h233l-238 -245v-144z" />
    <glyph glyph-name="braceleft" unicode="{" horiz-adv-x="389" 
d="M359 756h-100q-27 0 -52.5 -8t-46 -25t-32.5 -42.5t-12 -61.5v-200q0 -23 -10 -36t-24 -19.5t-28.5 -8.5t-23.5 -2v-90q9 0 23.5 -2t28.5 -9.5t24 -22t10 -39.5v-193q0 -36 12 -61.5t32.5 -42.5t46 -25t52.5 -8h100v90h-47q-20 0 -31.5 6t-17.5 15.5t-7.5 21t-1.5 21.5
v176q0 40 -12.5 63t-30 34.5t-37.5 15t-36 4.5v2q16 1 36 5.5t37.5 16.5t30 33t12.5 55v183q0 10 1.5 21.5t7.5 21t17.5 15.5t31.5 6h47v90z" />
    <glyph glyph-name="bar" unicode="|" horiz-adv-x="222" 
d="M48 -12h126v762h-126v-762z" />
    <glyph glyph-name="braceright" unicode="}" horiz-adv-x="389" 
d="M30 -140h100q27 0 52.5 8t46 25t32.5 42.5t12 61.5v200q0 22 10 35.5t24 20t28.5 8.5t23.5 2v90q-9 0 -23.5 2t-28.5 9.5t-24 22t-10 39.5v193q0 36 -12 61.5t-32.5 42.5t-46 25t-52.5 8h-100v-90h47q20 0 31.5 -6t17.5 -15.5t7.5 -21t1.5 -21.5v-176q0 -40 12.5 -63
t30 -34.5t37.5 -15t36 -4.5v-2q-16 -1 -36 -5.5t-37.5 -16.5t-30 -33t-12.5 -55v-183q0 -10 -1.5 -21.5t-7.5 -21t-17.5 -15.5t-31.5 -6h-47v-90z" />
    <glyph glyph-name="asciitilde" unicode="~" horiz-adv-x="600" 
d="M495 353q-17 -26 -37.5 -47.5t-50.5 -21.5q-24 0 -48.5 10t-51 22t-55 22t-58.5 10q-25 0 -44.5 -7.5t-34.5 -19.5t-26.5 -27.5t-19.5 -31.5l36 -109q17 26 37.5 47.5t50.5 21.5q24 0 48.5 -10t51 -22t55 -22t58.5 -10q25 0 44.5 7.5t34.5 19.5t26.5 27.5t19.5 31.5z" />
    <glyph glyph-name="exclamdown" unicode="&#xa1;" horiz-adv-x="444" 
d="M129 -177h186l-26 461h-134zM306 521h-168v-162h168v162z" />
    <glyph glyph-name="cent" unicode="&#xa2;" horiz-adv-x="612" 
d="M314 150q-24 17 -39.5 44.5t-15.5 62.5q0 66 37 104t93 40zM226 -140h60l40 131q24 -3 50 -3q36 0 74.5 6t72.5 17l-4 134q-23 -12 -52 -18.5t-60 -6.5q-20 0 -41 6l81 271q16 -4 30.5 -10.5t28.5 -14.5l13 132q-8 4 -16.5 7.5t-18.5 6.5l39 129h-59l-36 -117
q-26 3 -52 3q-65 0 -120 -18.5t-96 -53.5t-64 -85.5t-23 -115.5q0 -100 54 -166t142 -91z" />
    <glyph glyph-name="sterling" unicode="&#xa3;" horiz-adv-x="612" 
d="M53 0h503v132h-225v190h152v90h-152v33q0 30 6.5 53.5t23 40t44 25t68.5 8.5q23 0 43 -2.5t40 -9.5l8 132q-33 8 -66.5 13t-68.5 5q-132 0 -207 -59.5t-75 -185.5v-53h-86v-90h84v-190h-92v-132z" />
    <glyph glyph-name="currency" unicode="&#xa4;" horiz-adv-x="612" 
d="M46 151l63 -62l57 54q13 -11 30.5 -18.5t36 -13t37.5 -8t36 -2.5q16 0 35.5 2.5t38 8t36 13t30.5 18.5l57 -54l63 62l-58 57q13 13 21.5 30t14 35.5t8 38t2.5 37.5t-2.5 37.5t-8 38t-14 35.5t-21.5 30l58 57l-63 62l-57 -54q-13 10 -30.5 18t-36 13.5t-38 8t-35.5 2.5
q-17 0 -36 -2.5t-37.5 -8t-36 -13.5t-30.5 -18l-57 54l-63 -62l58 -57q-13 -13 -21.5 -30t-14 -35.5t-8 -38t-2.5 -37.5t2.5 -37.5t8 -38t14 -35.5t21.5 -30zM306 227q-51 0 -83.5 34.5t-32.5 87.5t32.5 87.5t83.5 34.5t83.5 -34.5t32.5 -87.5t-32.5 -87.5t-83.5 -34.5z" />
    <glyph glyph-name="yen" unicode="&#xa5;" horiz-adv-x="612" 
d="M216 0h180v136h148v84h-148v43l10 19h138v84h-97l165 332h-188l-118 -282l-120 282h-186l165 -332h-97v-84h139l9 -19v-43h-148v-84h148v-136z" />
    <glyph glyph-name="brokenbar" unicode="&#xa6;" horiz-adv-x="222" 
d="M48 -12h126v284h-126v-284zM48 466h126v284h-126v-284z" />
    <glyph glyph-name="section" unicode="&#xa7;" 
d="M84 -109q33 -9 83.5 -19t110.5 -10q41 0 87 9t84.5 29t64 52.5t25.5 79.5q0 18 -5 36t-14 34t-22 29.5t-29 21.5q35 25 58.5 59t23.5 77q0 47 -22 78.5t-55.5 53.5t-72.5 36t-72.5 27t-55.5 26.5t-22 33.5q0 28 24 37t55 9q39 0 79 -7.5t76 -21.5l8 124q-39 11 -80 18
t-82 7q-44 0 -90.5 -6.5t-84 -25.5t-61.5 -52t-24 -87q0 -37 22.5 -69t56.5 -47q-42 -26 -66 -57t-24 -79q0 -44 22 -73.5t55.5 -50.5t72 -35.5t72 -28t55.5 -28.5t22 -37q0 -32 -25.5 -42t-62.5 -10q-41 0 -90.5 11.5t-87.5 28.5zM243 382q32 -14 66 -28.5t60 -30.5
q11 -7 21.5 -18t10.5 -28q0 -20 -8.5 -40.5t-21.5 -35.5q-42 17 -79.5 30.5t-64.5 39.5q-17 16 -17 41q0 20 10.5 38t22.5 32z" />
    <glyph glyph-name="dieresis" unicode="&#xa8;" horiz-adv-x="333" 
d="M209 585h144v144h-144v-144zM-19 585h144v144h-144v-144z" />
    <glyph glyph-name="copyright" unicode="&#xa9;" horiz-adv-x="800" 
d="M477 292q-8 -27 -23 -41t-49 -14q-38 0 -59 30.5t-21 81.5t21 81t59 30q34 0 49 -14t23 -41h96q-2 71 -46 111t-122 40q-45 0 -81 -16t-61 -43.5t-38.5 -65.5t-13.5 -82q0 -45 13.5 -83t38.5 -65.5t61 -43.5t81 -16q78 0 122 40t46 111h-96zM39 349q0 -75 28.5 -140.5
t77.5 -114.5t114.5 -77.5t140.5 -28.5t140.5 28.5t114.5 77.5t77.5 114.5t28.5 140.5t-28.5 140.5t-77.5 114.5t-114.5 77.5t-140.5 28.5t-140.5 -28.5t-114.5 -77.5t-77.5 -114.5t-28.5 -140.5zM153 349q0 55 19.5 102.5t53 82.5t78.5 54.5t96 19.5t96 -19.5t78.5 -54.5
t53 -82.5t19.5 -102.5q0 -56 -19.5 -103t-53 -82t-78.5 -54.5t-96 -19.5t-96 19.5t-78.5 54.5t-53 82t-19.5 103z" />
    <glyph glyph-name="ordfeminine" unicode="&#xaa;" horiz-adv-x="397" 
d="M63 615q26 14 53.5 19.5t56.5 5.5q32 0 54.5 -11t22.5 -45q-11 1 -28 2.5t-43 1.5q-17 0 -44 -3.5t-52.5 -14.5t-43.5 -32.5t-18 -57.5q0 -26 10.5 -45t27.5 -31t40 -18t48 -6q70 0 103 55h2l6 -47h118q-4 29 -6 61v144q0 39 -15 62t-39 35t-55 16t-63 4q-75 0 -135 -22
v-73zM250 524q0 -30 -18.5 -52t-47.5 -22q-20 0 -31.5 9.5t-11.5 28.5q0 20 18 28t48 8h43z" />
    <glyph glyph-name="guillemotleft" unicode="&#xab;" 
d="M166 65h148l-110 204l110 204h-148l-119 -204zM404 65h148l-110 204l110 204h-148l-119 -204z" />
    <glyph glyph-name="logicalnot" unicode="&#xac;" horiz-adv-x="600" 
d="M47 305h380v-197h126v323h-506v-126z" />
    <glyph glyph-name="registered" unicode="&#xae;" horiz-adv-x="800" 
d="M400 -12q75 0 140.5 28.5t114.5 77.5t77.5 114.5t28.5 140.5t-28.5 140.5t-77.5 114.5t-114.5 77.5t-140.5 28.5t-140.5 -28.5t-114.5 -77.5t-77.5 -114.5t-28.5 -140.5t28.5 -140.5t77.5 -114.5t114.5 -77.5t140.5 -28.5zM400 90q-51 0 -96 19.5t-78.5 54.5t-53 82
t-19.5 103q0 55 19.5 102.5t53 82.5t78.5 54.5t96 19.5t96 -19.5t78.5 -54.5t53 -82.5t19.5 -102.5q0 -56 -19.5 -103t-53 -82t-78.5 -54.5t-96 -19.5zM257 154h96v164h17l86 -164h96l-94 170q47 2 78.5 27t31.5 81q0 66 -38.5 90.5t-112.5 24.5h-160v-393zM353 471h50
q11 0 23.5 -1t22.5 -4.5t16.5 -10.5t6.5 -18q0 -24 -17 -33.5t-44 -9.5h-58v77z" />
    <glyph glyph-name="macron" unicode="&#xaf;" horiz-adv-x="333" 
d="M-21 623h375v84h-375v-84z" />
    <glyph glyph-name="macron" unicode="&#x2c9;" horiz-adv-x="333" 
d="M-21 623h375v84h-375v-84z" />
    <glyph glyph-name="degree" unicode="&#xb0;" horiz-adv-x="400" 
d="M53 563q0 -30 11.5 -57t31.5 -47t47 -31.5t57 -11.5t57 11.5t47 31.5t31.5 47t11.5 57t-11.5 57t-31.5 47t-47 31.5t-57 11.5t-57 -11.5t-47 -31.5t-31.5 -47t-11.5 -57zM129 563q0 29 21 50t50 21t50 -21t21 -50t-21 -50t-50 -21t-50 21t-21 50z" />
    <glyph glyph-name="plusminus" unicode="&#xb1;" horiz-adv-x="600" 
d="M47 268h190v-112h126v112h190v126h-190v112h-126v-112h-190v-126zM47 0h506v126h-506v-126z" />
    <glyph glyph-name="twosuperior" unicode="&#xb2;" horiz-adv-x="398" 
d="M30 282h330v90h-150l18 16q26 23 51.5 46.5t45 47.5t31.5 50t12 55q0 30 -13 53t-35 38.5t-51 23.5t-60 8q-50 0 -90.5 -6.5t-76.5 -17.5l5 -96q26 12 57 18t59 6q25 0 43 -11t18 -33q0 -20 -18.5 -45.5t-47 -52t-62.5 -52.5t-66 -48v-90z" />
    <glyph glyph-name="threesuperior" unicode="&#xb3;" horiz-adv-x="398" 
d="M49 594q20 8 47 14t54 6q12 0 25 -1.5t24 -6t18.5 -11.5t7.5 -18q0 -20 -17.5 -32t-50.5 -12q-16 0 -30 0.5t-25 2.5v-89q11 1 23.5 1.5t27.5 0.5q32 0 55.5 -7.5t23.5 -30.5q0 -20 -24 -30.5t-64 -10.5q-29 0 -58 5.5t-52 16.5l-6 -104q26 -8 61.5 -11t80.5 -3
q34 0 70 6t64.5 20.5t47 40t18.5 64.5t-25 63.5t-67 31.5v2q39 10 62 33t23 59q0 34 -16 56.5t-41.5 36t-58 18.5t-64.5 5q-44 0 -76 -4.5t-64 -13.5z" />
    <glyph glyph-name="acute" unicode="&#xb4;" horiz-adv-x="333" 
d="M99 585h126l129 144h-187z" />
    <glyph glyph-name="mu" unicode="&#xb5;" horiz-adv-x="667" 
d="M611 521h-180v-220q0 -85 -28 -124t-84 -39q-18 0 -33.5 6.5t-26.5 22t-17 40.5t-6 62v252h-180v-731h182v198h17q62 0 112.5 25.5t77.5 82.5h2v-96h164v521z" />
    <glyph glyph-name="mu" unicode="&#x3bc;" horiz-adv-x="667" 
d="M611 521h-180v-220q0 -85 -28 -124t-84 -39q-18 0 -33.5 6.5t-26.5 22t-17 40.5t-6 62v252h-180v-731h182v198h17q62 0 112.5 25.5t77.5 82.5h2v-96h164v521z" />
    <glyph glyph-name="paragraph" unicode="&#xb6;" horiz-adv-x="620" 
d="M241 -126h120v734h97v-734h120v824h-337q-47 0 -87.5 -8t-70.5 -28.5t-47.5 -54t-17.5 -84.5t17.5 -84.5t47.5 -54t70.5 -28.5t87.5 -8v-474z" />
    <glyph glyph-name="periodcentered" unicode="&#xb7;" horiz-adv-x="306" 
d="M60 272q0 -19 7.5 -36t20 -29.5t29.5 -20t36 -7.5t36 7.5t29.5 20t20 29.5t7.5 36t-7.5 36t-20 29.5t-29.5 20t-36 7.5t-36 -7.5t-29.5 -20t-20 -29.5t-7.5 -36z" />
    <glyph glyph-name="cedilla" unicode="&#xb8;" horiz-adv-x="333" 
d="M147 0l-42 -90l39 -24q15 6 28 6q15 0 26.5 -7t11.5 -28q0 -17 -13.5 -24t-37.5 -7q-22 0 -43.5 5.5t-43.5 15.5l-17 -46q26 -11 55 -17t70 -6q27 0 51 4t42 12.5t28.5 23t10.5 35.5q0 24 -7 40.5t-18 27t-25 15t-28 4.5q-17 0 -27 -1.5t-21 -3.5l27 65h-66z" />
    <glyph glyph-name="onesuperior" unicode="&#xb9;" horiz-adv-x="398" 
d="M163 282h132v420h-113l-152 -93l54 -87l79 48v-288z" />
    <glyph glyph-name="ordmasculine" unicode="&#xba;" horiz-adv-x="434" 
d="M17 545q0 -39 15 -69.5t42 -52t63.5 -32.5t79.5 -11t79.5 11t63.5 32.5t42 52t15 69.5t-15 69.5t-42 52t-63.5 32.5t-79.5 11t-79.5 -11t-63.5 -32.5t-42 -52t-15 -69.5zM143 545q0 30 17.5 55.5t56.5 25.5t56.5 -25.5t17.5 -55.5q0 -31 -17.5 -56t-56.5 -25t-56.5 25
t-17.5 56z" />
    <glyph glyph-name="guillemotright" unicode="&#xbb;" 
d="M207 473h-148l110 -204l-110 -204h148l119 204zM445 473h-148l110 -204l-110 -204h148l119 204z" />
    <glyph glyph-name="onequarter" unicode="&#xbc;" horiz-adv-x="916" 
d="M209 -22h109l387 742h-109zM163 284h132v420h-113l-152 -93l54 -87l79 48v-288zM714 0h120v71h60v90h-60v259h-151l-179 -248v-101h210v-71zM714 161h-123l121 172h2v-172z" />
    <glyph glyph-name="onehalf" unicode="&#xbd;" horiz-adv-x="916" 
d="M201 -22h109l387 742h-109zM155 282h132v420h-113l-152 -93l54 -87l79 48v-288zM556 0h330v90h-150l18 16q26 23 51.5 46.5t45 47.5t31.5 50t12 55q0 30 -13 53t-35 38.5t-51 23.5t-60 8q-50 0 -90.5 -6.5t-76.5 -17.5l5 -96q26 12 57 18t59 6q25 0 43 -11t18 -33
q0 -20 -18.5 -45.5t-47 -52t-62.5 -52.5t-66 -48v-90z" />
    <glyph glyph-name="threequarters" unicode="&#xbe;" horiz-adv-x="916" 
d="M209 -22h109l387 742h-109zM49 594q20 8 47 14t54 6q12 0 25 -1.5t24 -6t18.5 -11.5t7.5 -18q0 -20 -17.5 -32t-50.5 -12q-16 0 -30 0.5t-25 2.5v-89q11 1 23.5 1.5t27.5 0.5q32 0 55.5 -7.5t23.5 -30.5q0 -20 -24 -30.5t-64 -10.5q-29 0 -58 5.5t-52 16.5l-6 -104
q26 -8 61.5 -11t80.5 -3q34 0 70 6t64.5 20.5t47 40t18.5 64.5t-25 63.5t-67 31.5v2q39 10 62 33t23 59q0 34 -16 56.5t-41.5 36t-58 18.5t-64.5 5q-44 0 -76 -4.5t-64 -13.5zM714 0h120v71h60v90h-60v259h-151l-179 -248v-101h210v-71zM714 161h-123l121 172h2v-172z" />
    <glyph glyph-name="questiondown" unicode="&#xbf;" horiz-adv-x="556" 
d="M487 -20q-73 -37 -157 -37q-18 0 -37.5 4t-35.5 13t-26.5 22.5t-10.5 32.5q0 33 20 61.5t44.5 58.5t44.5 65.5t20 83.5h-146q-3 -33 -16 -59t-31 -49t-38.5 -43.5t-37.5 -43.5t-28.5 -49.5t-11.5 -60.5q0 -47 22 -79t57 -52t78 -28.5t84 -8.5q54 0 106.5 6.5t103.5 22.5z
M360 521h-168v-162h168v162z" />
    <glyph glyph-name="Agrave" unicode="&#xc0;" horiz-adv-x="778" 
d="M8 0h189l55 149h262l52 -149h204l-269 698h-228zM470 281h-175l90 273h2zM469 735l-68 144h-187l129 -144h126z" />
    <glyph glyph-name="Aacute" unicode="&#xc1;" horiz-adv-x="778" 
d="M8 0h189l55 149h262l52 -149h204l-269 698h-228zM470 281h-175l90 273h2zM308 735h126l129 144h-187z" />
    <glyph glyph-name="Acircumflex" unicode="&#xc2;" horiz-adv-x="778" 
d="M8 0h189l55 149h262l52 -149h204l-269 698h-228zM470 281h-175l90 273h2zM197 735h125l69 78l65 -78h125l-109 144h-162z" />
    <glyph glyph-name="Atilde" unicode="&#xc3;" horiz-adv-x="778" 
d="M8 0h189l55 149h262l52 -149h204l-269 698h-228zM470 281h-175l90 273h2zM514 879q-7 -39 -50 -39q-14 0 -30.5 5.5t-35 12.5t-38 12.5t-39.5 5.5q-30 0 -52.5 -12t-38 -32t-24.5 -45.5t-12 -51.5h72q5 19 15.5 29t33.5 10q12 0 28.5 -5.5t35.5 -12.5t38.5 -12.5
t39.5 -5.5q31 0 53.5 11.5t38.5 30.5t25 44.5t12 54.5h-72z" />
    <glyph glyph-name="Adieresis" unicode="&#xc4;" horiz-adv-x="778" 
d="M8 0h189l55 149h262l52 -149h204l-269 698h-228zM470 281h-175l90 273h2zM432 735h144v144h-144v-144zM204 735h144v144h-144v-144z" />
    <glyph glyph-name="Aring" unicode="&#xc5;" horiz-adv-x="778" 
d="M8 0h189l55 149h262l52 -149h204l-269 698h-228zM470 281h-175l90 273h2zM278 842q0 -23 9 -43.5t24 -35.5t35.5 -24t43.5 -9t43.5 9t35.5 24t24 35.5t9 43.5t-9 43.5t-24 35.5t-35.5 24t-43.5 9t-43.5 -9t-35.5 -24t-24 -35.5t-9 -43.5zM342 842q0 20 14 34t34 14
t34 -14t14 -34t-14 -34t-34 -14t-34 14t-14 34z" />
    <glyph glyph-name="AE" unicode="&#xc6;" horiz-adv-x="1000" 
d="M-4 0h195l73 149h213v-149h484v132h-298v158h268v132h-268v144h286v132h-588zM477 281h-148l139 285h9v-285z" />
    <glyph glyph-name="Ccedilla" unicode="&#xc7;" horiz-adv-x="667" 
d="M638 162q-38 -15 -83 -25.5t-91 -10.5q-51 0 -94 15t-73.5 43.5t-48 69.5t-17.5 92q0 49 15.5 90.5t44 71.5t68.5 47t90 17q48 0 92.5 -12t89.5 -37l15 151q-51 15 -102 25.5t-105 10.5q-86 0 -159.5 -22.5t-127 -68t-83.5 -114t-30 -159.5q0 -99 36.5 -167.5t94 -110.5
t129 -61t141.5 -19q71 0 119 9t88 19zM368 0l-42 -90l39 -24q15 6 28 6q15 0 26.5 -7t11.5 -28q0 -17 -13.5 -24t-37.5 -7q-22 0 -43.5 5.5t-43.5 15.5l-17 -46q26 -11 55 -17t70 -6q27 0 51 4t42 12.5t28.5 23t10.5 35.5q0 24 -7 40.5t-18 27t-25 15t-28 4.5
q-17 0 -27 -1.5t-21 -3.5l27 65h-66z" />
    <glyph glyph-name="Egrave" unicode="&#xc8;" 
d="M60 0h503v132h-317v158h289v132h-289v144h306v132h-492v-698zM385 735l-68 144h-187l129 -144h126z" />
    <glyph glyph-name="Eacute" unicode="&#xc9;" 
d="M60 0h503v132h-317v158h289v132h-289v144h306v132h-492v-698zM224 735h126l129 144h-187z" />
    <glyph glyph-name="Ecircumflex" unicode="&#xca;" 
d="M60 0h503v132h-317v158h289v132h-289v144h306v132h-492v-698zM113 735h125l69 78l65 -78h125l-109 144h-162z" />
    <glyph glyph-name="Edieresis" unicode="&#xcb;" 
d="M60 0h503v132h-317v158h289v132h-289v144h306v132h-492v-698zM348 735h144v144h-144v-144zM120 735h144v144h-144v-144z" />
    <glyph glyph-name="Igrave" unicode="&#xcc;" horiz-adv-x="334" 
d="M74 0h186v698h-186v-698zM247 735l-68 144h-187l129 -144h126z" />
    <glyph glyph-name="Iacute" unicode="&#xcd;" horiz-adv-x="334" 
d="M74 0h186v698h-186v-698zM87 735h126l129 144h-187z" />
    <glyph glyph-name="Icircumflex" unicode="&#xce;" horiz-adv-x="334" 
d="M74 0h186v698h-186v-698zM-25 735h125l69 78l65 -78h125l-109 144h-162z" />
    <glyph glyph-name="Idieresis" unicode="&#xcf;" horiz-adv-x="334" 
d="M74 0h186v698h-186v-698zM210 735h144v144h-144v-144zM-18 735h144v144h-144v-144z" />
    <glyph glyph-name="Eth" unicode="&#xd0;" horiz-adv-x="778" 
d="M251 560h72q103 0 160 -53t57 -158t-56 -158t-161 -53h-72v174h167v102h-167v146zM65 0h254q89 0 165 18.5t131 60t86 108.5t31 165q0 101 -30.5 168t-85 106.5t-130.5 55.5t-167 16h-254v-284h-67v-102h67v-312z" />
    <glyph glyph-name="Ntilde" unicode="&#xd1;" horiz-adv-x="778" 
d="M68 0h171l-6 477h2l244 -477h231v698h-170l3 -474h-2l-236 474h-237v-698zM514 879q-7 -39 -50 -39q-14 0 -30.5 5.5t-35 12.5t-38 12.5t-39.5 5.5q-30 0 -52.5 -12t-38 -32t-24.5 -45.5t-12 -51.5h72q5 19 15.5 29t33.5 10q12 0 28.5 -5.5t35.5 -12.5t38.5 -12.5
t39.5 -5.5q31 0 53.5 11.5t38.5 30.5t25 44.5t12 54.5h-72z" />
    <glyph glyph-name="Ograve" unicode="&#xd2;" horiz-adv-x="778" 
d="M39 349q0 -83 22.5 -150t67 -114t109.5 -72t151 -25q85 0 150.5 25t110 72t67 114t22.5 150q0 84 -22.5 151t-66.5 113.5t-109.5 71.5t-151.5 25t-151.5 -25t-109.5 -71.5t-66.5 -113.5t-22.5 -151zM231 349q0 45 9 85.5t28 71t49 48.5t72 18t72 -18t49 -48.5t28 -71
t9 -85.5q0 -43 -9 -83.5t-28 -71.5t-49 -49.5t-72 -18.5t-72 18.5t-49 49.5t-28 71.5t-9 83.5zM469 735l-68 144h-187l129 -144h126z" />
    <glyph glyph-name="Oacute" unicode="&#xd3;" horiz-adv-x="778" 
d="M39 349q0 -83 22.5 -150t67 -114t109.5 -72t151 -25q85 0 150.5 25t110 72t67 114t22.5 150q0 84 -22.5 151t-66.5 113.5t-109.5 71.5t-151.5 25t-151.5 -25t-109.5 -71.5t-66.5 -113.5t-22.5 -151zM231 349q0 45 9 85.5t28 71t49 48.5t72 18t72 -18t49 -48.5t28 -71
t9 -85.5q0 -43 -9 -83.5t-28 -71.5t-49 -49.5t-72 -18.5t-72 18.5t-49 49.5t-28 71.5t-9 83.5zM308 735h126l129 144h-187z" />
    <glyph glyph-name="Ocircumflex" unicode="&#xd4;" horiz-adv-x="778" 
d="M39 349q0 -83 22.5 -150t67 -114t109.5 -72t151 -25q85 0 150.5 25t110 72t67 114t22.5 150q0 84 -22.5 151t-66.5 113.5t-109.5 71.5t-151.5 25t-151.5 -25t-109.5 -71.5t-66.5 -113.5t-22.5 -151zM231 349q0 45 9 85.5t28 71t49 48.5t72 18t72 -18t49 -48.5t28 -71
t9 -85.5q0 -43 -9 -83.5t-28 -71.5t-49 -49.5t-72 -18.5t-72 18.5t-49 49.5t-28 71.5t-9 83.5zM197 735h125l69 78l65 -78h125l-109 144h-162z" />
    <glyph glyph-name="Otilde" unicode="&#xd5;" horiz-adv-x="778" 
d="M39 349q0 -83 22.5 -150t67 -114t109.5 -72t151 -25q85 0 150.5 25t110 72t67 114t22.5 150q0 84 -22.5 151t-66.5 113.5t-109.5 71.5t-151.5 25t-151.5 -25t-109.5 -71.5t-66.5 -113.5t-22.5 -151zM231 349q0 45 9 85.5t28 71t49 48.5t72 18t72 -18t49 -48.5t28 -71
t9 -85.5q0 -43 -9 -83.5t-28 -71.5t-49 -49.5t-72 -18.5t-72 18.5t-49 49.5t-28 71.5t-9 83.5zM514 879q-7 -39 -50 -39q-14 0 -30.5 5.5t-35 12.5t-38 12.5t-39.5 5.5q-30 0 -52.5 -12t-38 -32t-24.5 -45.5t-12 -51.5h72q5 19 15.5 29t33.5 10q12 0 28.5 -5.5t35.5 -12.5
t38.5 -12.5t39.5 -5.5q31 0 53.5 11.5t38.5 30.5t25 44.5t12 54.5h-72z" />
    <glyph glyph-name="Odieresis" unicode="&#xd6;" horiz-adv-x="778" 
d="M39 349q0 -83 22.5 -150t67 -114t109.5 -72t151 -25q85 0 150.5 25t110 72t67 114t22.5 150q0 84 -22.5 151t-66.5 113.5t-109.5 71.5t-151.5 25t-151.5 -25t-109.5 -71.5t-66.5 -113.5t-22.5 -151zM231 349q0 45 9 85.5t28 71t49 48.5t72 18t72 -18t49 -48.5t28 -71
t9 -85.5q0 -43 -9 -83.5t-28 -71.5t-49 -49.5t-72 -18.5t-72 18.5t-49 49.5t-28 71.5t-9 83.5zM432 735h144v144h-144v-144zM204 735h144v144h-144v-144z" />
    <glyph glyph-name="multiply" unicode="&#xd7;" horiz-adv-x="600" 
d="M214 253l-152 -152l86 -86l152 153l152 -153l86 86l-153 152l153 152l-86 86l-152 -152l-152 152l-86 -86z" />
    <glyph glyph-name="Oslash" unicode="&#xd8;" horiz-adv-x="778" 
d="M242 260q-6 20 -8.5 43t-2.5 46q0 45 9 85.5t28 71t49 48.5t72 18q33 0 58.5 -11.5t44.5 -31.5zM535 447q12 -44 12 -98q0 -43 -9 -83.5t-28 -71.5t-49 -49.5t-72 -18.5q-36 0 -62.5 13t-44.5 36zM15 17l64 -60l88 95q85 -64 222 -64q85 0 150.5 25t110 72t67 114
t22.5 150q0 149 -70 242l84 91l-64 60l-84 -91q-42 29 -95.5 44t-120.5 15q-86 0 -151.5 -25t-109.5 -71.5t-66.5 -113.5t-22.5 -151q0 -145 67 -235z" />
    <glyph glyph-name="Ugrave" unicode="&#xd9;" horiz-adv-x="722" 
d="M667 698h-186v-402q0 -35 -5.5 -65.5t-19 -54t-36.5 -37t-59 -13.5t-59 13.5t-36.5 37t-19 54t-5.5 65.5v402h-186v-433q0 -72 22 -124t62.5 -86t97 -50.5t124.5 -16.5t124.5 16.5t97 50.5t62.5 86t22 124v433zM441 735l-68 144h-187l129 -144h126z" />
    <glyph glyph-name="Uacute" unicode="&#xda;" horiz-adv-x="722" 
d="M667 698h-186v-402q0 -35 -5.5 -65.5t-19 -54t-36.5 -37t-59 -13.5t-59 13.5t-36.5 37t-19 54t-5.5 65.5v402h-186v-433q0 -72 22 -124t62.5 -86t97 -50.5t124.5 -16.5t124.5 16.5t97 50.5t62.5 86t22 124v433zM280 735h126l129 144h-187z" />
    <glyph glyph-name="Ucircumflex" unicode="&#xdb;" horiz-adv-x="722" 
d="M667 698h-186v-402q0 -35 -5.5 -65.5t-19 -54t-36.5 -37t-59 -13.5t-59 13.5t-36.5 37t-19 54t-5.5 65.5v402h-186v-433q0 -72 22 -124t62.5 -86t97 -50.5t124.5 -16.5t124.5 16.5t97 50.5t62.5 86t22 124v433zM169 735h125l69 78l65 -78h125l-109 144h-162z" />
    <glyph glyph-name="Udieresis" unicode="&#xdc;" horiz-adv-x="722" 
d="M667 698h-186v-402q0 -35 -5.5 -65.5t-19 -54t-36.5 -37t-59 -13.5t-59 13.5t-36.5 37t-19 54t-5.5 65.5v402h-186v-433q0 -72 22 -124t62.5 -86t97 -50.5t124.5 -16.5t124.5 16.5t97 50.5t62.5 86t22 124v433zM404 735h144v144h-144v-144zM176 735h144v144h-144v-144z
" />
    <glyph glyph-name="Yacute" unicode="&#xdd;" horiz-adv-x="722" 
d="M269 0h186v263l256 435h-214l-135 -280l-137 280h-214l258 -435v-263zM294 735h126l129 144h-187z" />
    <glyph glyph-name="Thorn" unicode="&#xde;" 
d="M55 0h186v157h72q131 0 204 55t73 170q0 63 -19 106.5t-57.5 71t-97.5 39.5t-139 12h-36v87h-186v-698zM241 479h48q24 0 45 -4.5t36.5 -15.5t24.5 -29t9 -45t-9 -45.5t-24.5 -30t-36.5 -16t-45 -4.5h-48v190z" />
    <glyph glyph-name="germandbls" unicode="&#xdf;" horiz-adv-x="667" 
d="M56 0h180v507q0 26 5 50.5t16 43t30 30t48 11.5q41 0 63.5 -23.5t22.5 -70.5q0 -42 -25 -68.5t-63 -26.5h-25v-128q12 2 24 2h25q38 0 64.5 -25t26.5 -73q0 -30 -7.5 -49.5t-20.5 -31.5t-30.5 -17t-36.5 -5q-17 0 -33.5 1.5t-31.5 3.5l-5 -131q17 -2 38.5 -4t50.5 -2
q46 0 92 9.5t82.5 34.5t59 66.5t22.5 106.5q0 70 -35 115.5t-117 58.5v2q63 22 94 61t31 108q0 59 -22.5 98.5t-59.5 63.5t-84 34t-95 10t-98 -10t-91.5 -39.5t-68 -82t-26.5 -136.5v-494z" />
    <glyph glyph-name="agrave" unicode="&#xe0;" 
d="M562 0q-6 31 -8 61.5t-2 61.5v194q0 60 -20 101t-54 66.5t-79 37t-95 11.5q-58 0 -109 -8.5t-99 -28.5l3 -122q38 21 80 30t86 9q24 0 45.5 -4t38 -14.5t26 -27.5t9.5 -44q-17 3 -39.5 5t-44.5 2q-36 0 -82.5 -5.5t-88 -24t-70 -53.5t-28.5 -95q0 -42 16 -73t43 -51.5
t62 -30t74 -9.5q56 0 95 22.5t70 71.5h2q0 -20 1.5 -40.5t2.5 -41.5h165zM199 165q0 38 31.5 53.5t77.5 15.5q20 0 39.5 -1t36.5 -2q0 -23 -8 -45t-22 -39.5t-35 -28t-46 -10.5q-32 0 -53 15t-21 42zM385 585l-68 144h-187l129 -144h126z" />
    <glyph glyph-name="aacute" unicode="&#xe1;" 
d="M562 0q-6 31 -8 61.5t-2 61.5v194q0 60 -20 101t-54 66.5t-79 37t-95 11.5q-58 0 -109 -8.5t-99 -28.5l3 -122q38 21 80 30t86 9q24 0 45.5 -4t38 -14.5t26 -27.5t9.5 -44q-17 3 -39.5 5t-44.5 2q-36 0 -82.5 -5.5t-88 -24t-70 -53.5t-28.5 -95q0 -42 16 -73t43 -51.5
t62 -30t74 -9.5q56 0 95 22.5t70 71.5h2q0 -20 1.5 -40.5t2.5 -41.5h165zM199 165q0 38 31.5 53.5t77.5 15.5q20 0 39.5 -1t36.5 -2q0 -23 -8 -45t-22 -39.5t-35 -28t-46 -10.5q-32 0 -53 15t-21 42zM238 585h126l129 144h-187z" />
    <glyph glyph-name="acircumflex" unicode="&#xe2;" 
d="M562 0q-6 31 -8 61.5t-2 61.5v194q0 60 -20 101t-54 66.5t-79 37t-95 11.5q-58 0 -109 -8.5t-99 -28.5l3 -122q38 21 80 30t86 9q24 0 45.5 -4t38 -14.5t26 -27.5t9.5 -44q-17 3 -39.5 5t-44.5 2q-36 0 -82.5 -5.5t-88 -24t-70 -53.5t-28.5 -95q0 -42 16 -73t43 -51.5
t62 -30t74 -9.5q56 0 95 22.5t70 71.5h2q0 -20 1.5 -40.5t2.5 -41.5h165zM199 165q0 38 31.5 53.5t77.5 15.5q20 0 39.5 -1t36.5 -2q0 -23 -8 -45t-22 -39.5t-35 -28t-46 -10.5q-32 0 -53 15t-21 42zM113 585h125l69 78l65 -78h125l-109 144h-162z" />
    <glyph glyph-name="atilde" unicode="&#xe3;" 
d="M562 0q-6 31 -8 61.5t-2 61.5v194q0 60 -20 101t-54 66.5t-79 37t-95 11.5q-58 0 -109 -8.5t-99 -28.5l3 -122q38 21 80 30t86 9q24 0 45.5 -4t38 -14.5t26 -27.5t9.5 -44q-17 3 -39.5 5t-44.5 2q-36 0 -82.5 -5.5t-88 -24t-70 -53.5t-28.5 -95q0 -42 16 -73t43 -51.5
t62 -30t74 -9.5q56 0 95 22.5t70 71.5h2q0 -20 1.5 -40.5t2.5 -41.5h165zM199 165q0 38 31.5 53.5t77.5 15.5q20 0 39.5 -1t36.5 -2q0 -23 -8 -45t-22 -39.5t-35 -28t-46 -10.5q-32 0 -53 15t-21 42zM430 729q-7 -39 -50 -39q-14 0 -30.5 5.5t-35 12.5t-38 12.5t-39.5 5.5
q-30 0 -52.5 -12t-38 -32t-24.5 -45.5t-12 -51.5h72q5 19 15.5 29t33.5 10q12 0 28.5 -5.5t35.5 -12.5t38.5 -12.5t39.5 -5.5q31 0 53.5 11.5t38.5 30.5t25 44.5t12 54.5h-72z" />
    <glyph glyph-name="adieresis" unicode="&#xe4;" 
d="M562 0q-6 31 -8 61.5t-2 61.5v194q0 60 -20 101t-54 66.5t-79 37t-95 11.5q-58 0 -109 -8.5t-99 -28.5l3 -122q38 21 80 30t86 9q24 0 45.5 -4t38 -14.5t26 -27.5t9.5 -44q-17 3 -39.5 5t-44.5 2q-36 0 -82.5 -5.5t-88 -24t-70 -53.5t-28.5 -95q0 -42 16 -73t43 -51.5
t62 -30t74 -9.5q56 0 95 22.5t70 71.5h2q0 -20 1.5 -40.5t2.5 -41.5h165zM199 165q0 38 31.5 53.5t77.5 15.5q20 0 39.5 -1t36.5 -2q0 -23 -8 -45t-22 -39.5t-35 -28t-46 -10.5q-32 0 -53 15t-21 42zM348 585h144v144h-144v-144zM120 585h144v144h-144v-144z" />
    <glyph glyph-name="aring" unicode="&#xe5;" 
d="M562 0q-6 31 -8 61.5t-2 61.5v194q0 60 -20 101t-54 66.5t-79 37t-95 11.5q-58 0 -109 -8.5t-99 -28.5l3 -122q38 21 80 30t86 9q24 0 45.5 -4t38 -14.5t26 -27.5t9.5 -44q-17 3 -39.5 5t-44.5 2q-36 0 -82.5 -5.5t-88 -24t-70 -53.5t-28.5 -95q0 -42 16 -73t43 -51.5
t62 -30t74 -9.5q56 0 95 22.5t70 71.5h2q0 -20 1.5 -40.5t2.5 -41.5h165zM199 165q0 38 31.5 53.5t77.5 15.5q20 0 39.5 -1t36.5 -2q0 -23 -8 -45t-22 -39.5t-35 -28t-46 -10.5q-32 0 -53 15t-21 42zM194 678q0 -23 9 -43.5t24 -35.5t35.5 -24t43.5 -9t43.5 9t35.5 24
t24 35.5t9 43.5t-9 43.5t-24 35.5t-35.5 24t-43.5 9t-43.5 -9t-35.5 -24t-24 -35.5t-9 -43.5zM258 678q0 20 14 34t34 14t34 -14t14 -34t-14 -34t-34 -14t-34 14t-14 34z" />
    <glyph glyph-name="ae" unicode="&#xe6;" horiz-adv-x="944" 
d="M869 148q-41 -22 -81.5 -31t-77.5 -9q-66 0 -105.5 23t-47.5 77h360v33q0 58 -14 111t-45 93t-81.5 64t-122.5 24q-58 0 -103.5 -18t-80.5 -46q-29 34 -75.5 48t-99.5 16q-58 0 -109 -8.5t-99 -27.5l3 -123q38 21 80 30t86 9q24 0 45.5 -4t38 -14t26 -27t9.5 -43
q-17 2 -39.5 3.5t-44.5 1.5q-36 0 -82.5 -5.5t-88 -24t-70 -53.5t-28.5 -94q0 -43 16 -74t43 -51.5t62 -30t74 -9.5q35 0 67.5 5.5t61 18.5t52.5 35.5t43 57.5q21 -38 48 -61t58 -35.5t64.5 -16.5t66.5 -4q51 0 99 8t92 25v127zM190 166q0 38 32.5 53t83.5 15h69
q0 -23 -8 -45.5t-22 -40.5t-35 -29t-46 -11q-32 0 -53 15t-21 43zM555 310q3 45 27 77t73 32q54 0 77 -32t23 -77h-200z" />
    <glyph glyph-name="ccedilla" unicode="&#xe7;" horiz-adv-x="500" 
d="M477 504q-31 15 -66.5 22t-76.5 7q-65 0 -120 -18.5t-96 -53.5t-64 -85.5t-23 -115.5t23 -115.5t64 -85t96 -53t120 -18.5q36 0 74.5 6t72.5 17l-4 134q-23 -12 -52 -18.5t-60 -6.5q-29 0 -56 9.5t-47.5 27.5t-32.5 43.5t-12 56.5q0 34 10.5 60.5t29 45t44 28.5t54.5 10
q32 0 58 -7t51 -22zM258 0l-42 -90l39 -24q15 6 28 6q15 0 26.5 -7t11.5 -28q0 -17 -13.5 -24t-37.5 -7q-22 0 -43.5 5.5t-43.5 15.5l-17 -46q26 -11 55 -17t70 -6q27 0 51 4t42 12.5t28.5 23t10.5 35.5q0 24 -7 40.5t-18 27t-25 15t-28 4.5q-17 0 -27 -1.5t-21 -3.5l27 65
h-66z" />
    <glyph glyph-name="egrave" unicode="&#xe8;" 
d="M573 208v33q0 58 -14 111t-45 93t-81.5 64t-122.5 24q-61 0 -112 -18.5t-88 -53t-58 -85.5t-21 -115q0 -65 23 -115.5t64 -85.5t96 -53.5t120 -18.5q51 0 99 8t92 25v127q-41 -22 -81.5 -31t-77.5 -9q-66 0 -105.5 23t-47.5 77h360zM211 310q3 45 27 77t73 32
q54 0 77 -32t23 -77h-200zM385 585l-68 144h-187l129 -144h126z" />
    <glyph glyph-name="eacute" unicode="&#xe9;" 
d="M573 208v33q0 58 -14 111t-45 93t-81.5 64t-122.5 24q-61 0 -112 -18.5t-88 -53t-58 -85.5t-21 -115q0 -65 23 -115.5t64 -85.5t96 -53.5t120 -18.5q51 0 99 8t92 25v127q-41 -22 -81.5 -31t-77.5 -9q-66 0 -105.5 23t-47.5 77h360zM211 310q3 45 27 77t73 32
q54 0 77 -32t23 -77h-200zM238 585h126l129 144h-187z" />
    <glyph glyph-name="ecircumflex" unicode="&#xea;" 
d="M573 208v33q0 58 -14 111t-45 93t-81.5 64t-122.5 24q-61 0 -112 -18.5t-88 -53t-58 -85.5t-21 -115q0 -65 23 -115.5t64 -85.5t96 -53.5t120 -18.5q51 0 99 8t92 25v127q-41 -22 -81.5 -31t-77.5 -9q-66 0 -105.5 23t-47.5 77h360zM211 310q3 45 27 77t73 32
q54 0 77 -32t23 -77h-200zM113 585h125l69 78l65 -78h125l-109 144h-162z" />
    <glyph glyph-name="edieresis" unicode="&#xeb;" 
d="M573 208v33q0 58 -14 111t-45 93t-81.5 64t-122.5 24q-61 0 -112 -18.5t-88 -53t-58 -85.5t-21 -115q0 -65 23 -115.5t64 -85.5t96 -53.5t120 -18.5q51 0 99 8t92 25v127q-41 -22 -81.5 -31t-77.5 -9q-66 0 -105.5 23t-47.5 77h360zM211 310q3 45 27 77t73 32
q54 0 77 -32t23 -77h-200zM348 585h144v144h-144v-144zM120 585h144v144h-144v-144z" />
    <glyph glyph-name="igrave" unicode="&#xec;" horiz-adv-x="334" 
d="M77 0h180v521h-180v-521zM247 585l-68 144h-187l129 -144h126z" />
    <glyph glyph-name="iacute" unicode="&#xed;" horiz-adv-x="334" 
d="M77 0h180v521h-180v-521zM100 585h126l129 144h-187z" />
    <glyph glyph-name="icircumflex" unicode="&#xee;" horiz-adv-x="334" 
d="M77 0h180v521h-180v-521zM-25 585h125l69 78l65 -78h125l-109 144h-162z" />
    <glyph glyph-name="idieresis" unicode="&#xef;" horiz-adv-x="334" 
d="M77 0h180v521h-180v-521zM210 585h144v144h-144v-144zM-18 585h144v144h-144v-144z" />
    <glyph glyph-name="eth" unicode="&#xf0;" horiz-adv-x="668" 
d="M217 249q0 25 6 49t19.5 42.5t35 29.5t52.5 11q33 0 56 -11t37.5 -29.5t21 -42t6.5 -48.5t-6.5 -49.5t-21 -43.5t-37.5 -31t-56 -12q-31 0 -52.5 12t-35 31t-19.5 43t-6 49zM81 594l60 -65l144 66q52 -31 93.5 -71.5t58.5 -95.5l-2 -2q-10 23 -27 38.5t-38.5 25t-46 13.5
t-48.5 4q-53 0 -98 -20.5t-77.5 -56t-50.5 -82.5t-18 -99q0 -133 78 -197t217 -64q75 0 132.5 22t97.5 62.5t60.5 99t20.5 130.5q0 64 -13.5 118t-38.5 99t-60.5 82t-78.5 67l120 54l-62 64l-146 -66q-71 37 -155 66l-104 -109q20 -8 43 -16t46 -18z" />
    <glyph glyph-name="ntilde" unicode="&#xf1;" horiz-adv-x="667" 
d="M56 0h180v220q0 85 28 124t84 39q37 0 60 -29t23 -102v-252h180v325q0 40 -11 78t-35 66.5t-62 46t-91 17.5q-62 0 -112.5 -25.5t-77.5 -82.5h-2v96h-164v-521zM458 729q-7 -39 -50 -39q-14 0 -30.5 5.5t-35 12.5t-38 12.5t-39.5 5.5q-30 0 -52.5 -12t-38 -32
t-24.5 -45.5t-12 -51.5h72q5 19 15.5 29t33.5 10q12 0 28.5 -5.5t35.5 -12.5t38.5 -12.5t39.5 -5.5q31 0 53.5 11.5t38.5 30.5t25 44.5t12 54.5h-72z" />
    <glyph glyph-name="ograve" unicode="&#xf2;" horiz-adv-x="668" 
d="M334 -12q64 0 119.5 18.5t96.5 53t64 85t23 115.5t-23 115.5t-64 85.5t-96.5 53.5t-119.5 18.5q-65 0 -120 -18.5t-96 -53.5t-64 -85.5t-23 -115.5t23 -115.5t64 -85t96 -53t120 -18.5zM334 114q-31 0 -53 12t-36.5 32t-21 46.5t-6.5 55.5t6.5 55.5t21 47t36.5 32.5
t53 12t53 -12t36.5 -32.5t21 -47t6.5 -55.5t-6.5 -55.5t-21 -46.5t-36.5 -32t-53 -12zM414 585l-68 144h-187l129 -144h126z" />
    <glyph glyph-name="oacute" unicode="&#xf3;" horiz-adv-x="668" 
d="M334 -12q64 0 119.5 18.5t96.5 53t64 85t23 115.5t-23 115.5t-64 85.5t-96.5 53.5t-119.5 18.5q-65 0 -120 -18.5t-96 -53.5t-64 -85.5t-23 -115.5t23 -115.5t64 -85t96 -53t120 -18.5zM334 114q-31 0 -53 12t-36.5 32t-21 46.5t-6.5 55.5t6.5 55.5t21 47t36.5 32.5
t53 12t53 -12t36.5 -32.5t21 -47t6.5 -55.5t-6.5 -55.5t-21 -46.5t-36.5 -32t-53 -12zM267 585h126l129 144h-187z" />
    <glyph glyph-name="ocircumflex" unicode="&#xf4;" horiz-adv-x="668" 
d="M334 -12q64 0 119.5 18.5t96.5 53t64 85t23 115.5t-23 115.5t-64 85.5t-96.5 53.5t-119.5 18.5q-65 0 -120 -18.5t-96 -53.5t-64 -85.5t-23 -115.5t23 -115.5t64 -85t96 -53t120 -18.5zM334 114q-31 0 -53 12t-36.5 32t-21 46.5t-6.5 55.5t6.5 55.5t21 47t36.5 32.5
t53 12t53 -12t36.5 -32.5t21 -47t6.5 -55.5t-6.5 -55.5t-21 -46.5t-36.5 -32t-53 -12zM142 585h125l69 78l65 -78h125l-109 144h-162z" />
    <glyph glyph-name="otilde" unicode="&#xf5;" horiz-adv-x="668" 
d="M334 -12q64 0 119.5 18.5t96.5 53t64 85t23 115.5t-23 115.5t-64 85.5t-96.5 53.5t-119.5 18.5q-65 0 -120 -18.5t-96 -53.5t-64 -85.5t-23 -115.5t23 -115.5t64 -85t96 -53t120 -18.5zM334 114q-31 0 -53 12t-36.5 32t-21 46.5t-6.5 55.5t6.5 55.5t21 47t36.5 32.5
t53 12t53 -12t36.5 -32.5t21 -47t6.5 -55.5t-6.5 -55.5t-21 -46.5t-36.5 -32t-53 -12zM459 729q-7 -39 -50 -39q-14 0 -30.5 5.5t-35 12.5t-38 12.5t-39.5 5.5q-30 0 -52.5 -12t-38 -32t-24.5 -45.5t-12 -51.5h72q5 19 15.5 29t33.5 10q12 0 28.5 -5.5t35.5 -12.5
t38.5 -12.5t39.5 -5.5q31 0 53.5 11.5t38.5 30.5t25 44.5t12 54.5h-72z" />
    <glyph glyph-name="odieresis" unicode="&#xf6;" horiz-adv-x="668" 
d="M334 -12q64 0 119.5 18.5t96.5 53t64 85t23 115.5t-23 115.5t-64 85.5t-96.5 53.5t-119.5 18.5q-65 0 -120 -18.5t-96 -53.5t-64 -85.5t-23 -115.5t23 -115.5t64 -85t96 -53t120 -18.5zM334 114q-31 0 -53 12t-36.5 32t-21 46.5t-6.5 55.5t6.5 55.5t21 47t36.5 32.5
t53 12t53 -12t36.5 -32.5t21 -47t6.5 -55.5t-6.5 -55.5t-21 -46.5t-36.5 -32t-53 -12zM377 585h144v144h-144v-144zM149 585h144v144h-144v-144z" />
    <glyph glyph-name="divide" unicode="&#xf7;" horiz-adv-x="600" 
d="M47 190h506v126h-506v-126zM206 461q0 -19 7.5 -36t20 -29.5t29.5 -20t36 -7.5t36 7.5t29.5 20t20 29.5t7.5 36t-7.5 36t-20 29.5t-29.5 20t-36 7.5t-36 -7.5t-29.5 -20t-20 -29.5t-7.5 -36zM206 45q0 -19 7.5 -36t20 -29.5t29.5 -20t36 -7.5t36 7.5t29.5 20t20 29.5
t7.5 36t-7.5 36t-20 29.5t-29.5 20t-36 7.5t-36 -7.5t-29.5 -20t-20 -29.5t-7.5 -36z" />
    <glyph glyph-name="oslash" unicode="&#xf8;" horiz-adv-x="668" 
d="M445 314q6 -26 6 -54q0 -29 -6.5 -55.5t-21 -46.5t-36.5 -32t-53 -12q-39 0 -64 19zM223 205q-6 25 -6 55q0 29 6.5 55.5t21 47t36.5 32.5t53 12q38 0 65 -19zM32 7l61 -58l75 78q72 -39 166 -39q64 0 119.5 18.5t96.5 53t64 85t23 115.5q0 57 -18 102.5t-50 80.5l68 71
l-61 58l-75 -78q-35 20 -77.5 29.5t-89.5 9.5q-65 0 -120 -18.5t-96 -53.5t-64 -85.5t-23 -115.5q0 -57 18.5 -103t50.5 -80z" />
    <glyph glyph-name="ugrave" unicode="&#xf9;" horiz-adv-x="667" 
d="M611 521h-180v-220q0 -85 -28 -124t-84 -39q-18 0 -33.5 6.5t-26.5 22t-17 40.5t-6 62v252h-180v-325q0 -41 11 -78.5t35 -66t62 -46t91 -17.5q62 0 112.5 25.5t77.5 82.5h2v-96h164v521zM413 585l-68 144h-187l129 -144h126z" />
    <glyph glyph-name="uacute" unicode="&#xfa;" horiz-adv-x="667" 
d="M611 521h-180v-220q0 -85 -28 -124t-84 -39q-18 0 -33.5 6.5t-26.5 22t-17 40.5t-6 62v252h-180v-325q0 -41 11 -78.5t35 -66t62 -46t91 -17.5q62 0 112.5 25.5t77.5 82.5h2v-96h164v521zM266 585h126l129 144h-187z" />
    <glyph glyph-name="ucircumflex" unicode="&#xfb;" horiz-adv-x="667" 
d="M611 521h-180v-220q0 -85 -28 -124t-84 -39q-18 0 -33.5 6.5t-26.5 22t-17 40.5t-6 62v252h-180v-325q0 -41 11 -78.5t35 -66t62 -46t91 -17.5q62 0 112.5 25.5t77.5 82.5h2v-96h164v521zM141 585h125l69 78l65 -78h125l-109 144h-162z" />
    <glyph glyph-name="udieresis" unicode="&#xfc;" horiz-adv-x="667" 
d="M611 521h-180v-220q0 -85 -28 -124t-84 -39q-18 0 -33.5 6.5t-26.5 22t-17 40.5t-6 62v252h-180v-325q0 -41 11 -78.5t35 -66t62 -46t91 -17.5q62 0 112.5 25.5t77.5 82.5h2v-96h164v521zM376 585h144v144h-144v-144zM148 585h144v144h-144v-144z" />
    <glyph glyph-name="yacute" unicode="&#xfd;" 
d="M45 -210q55 -12 112 -12q62 0 102.5 22t68 58t46.5 82.5t38 95.5l191 485h-180l-107 -340h-2l-112 340h-194l211 -533q-10 -35 -34 -53.5t-57 -18.5q-19 0 -36 2.5t-35 8.5zM238 585h126l129 144h-187z" />
    <glyph glyph-name="thorn" unicode="&#xfe;" horiz-adv-x="668" 
d="M52 -210h180v283h2q26 -47 71.5 -66t93.5 -19q58 0 102.5 22.5t74.5 61t45.5 89.5t15.5 109q0 47 -14.5 94t-43 84.5t-70 61t-95.5 23.5t-99 -17.5t-80 -61.5h-2v296h-181v-960zM451 266q0 -63 -29 -101.5t-80 -38.5q-23 0 -43 10t-35 28t-23.5 42t-8.5 53q0 59 30 97.5
t80 38.5q26 0 46.5 -10.5t34.5 -28t21 -41t7 -49.5z" />
    <glyph glyph-name="ydieresis" unicode="&#xff;" 
d="M45 -210q55 -12 112 -12q62 0 102.5 22t68 58t46.5 82.5t38 95.5l191 485h-180l-107 -340h-2l-112 340h-194l211 -533q-10 -35 -34 -53.5t-57 -18.5q-19 0 -36 2.5t-35 8.5zM348 585h144v144h-144v-144zM120 585h144v144h-144v-144z" />
    <glyph glyph-name="dotlessi" unicode="&#x131;" horiz-adv-x="334" 
d="M77 0h180v521h-180v-521z" />
    <glyph glyph-name="Lslash" unicode="&#x141;" horiz-adv-x="556" 
d="M65 0h474v138h-288v180l183 108v109l-183 -108v271h-186v-381l-65 -38v-109l65 38v-208z" />
    <glyph glyph-name="lslash" unicode="&#x142;" horiz-adv-x="334" 
d="M77 0h180v382l77 45v100l-77 -45v268h-180v-374l-77 -46v-100l77 46v-276z" />
    <glyph glyph-name="OE" unicode="&#x152;" horiz-adv-x="1000" 
d="M971 698h-326q-69 0 -138 3t-139 3q-86 0 -151.5 -25t-109.5 -71t-66.5 -112t-22.5 -147t22.5 -146.5t67 -112t109.5 -71.5t151 -25q51 0 99.5 3t98.5 3h416v132h-298v158h268v132h-271v144h290v132zM492 136q-20 0 -47.5 -2t-58.5 -2q-46 0 -79 18.5t-54.5 49t-32 69.5
t-10.5 80q0 43 6.5 82.5t24 69.5t48.5 47.5t79 17.5q32 0 63.5 -2t60.5 -2v-426z" />
    <glyph glyph-name="oe" unicode="&#x153;" horiz-adv-x="1000" 
d="M27 260q0 -67 21.5 -118t58.5 -85t87.5 -51.5t109.5 -17.5q29 0 58.5 3t57.5 12t53 25.5t45 43.5q19 -25 42.5 -41t51 -25.5t58.5 -13.5t64 -4q51 0 99 8t92 25v127q-41 -22 -81.5 -31t-77.5 -9q-66 0 -105.5 23t-47.5 77h360v33q0 58 -14 111t-45 93t-81.5 64t-122.5 24
q-23 0 -48.5 -3.5t-51 -12.5t-49.5 -24.5t-45 -38.5q-38 47 -89 63t-117 16q-57 0 -108.5 -17t-90 -51t-61.5 -85t-23 -120zM213 260q0 28 6.5 55.5t20 49.5t34 35t48.5 13t48.5 -13t34 -35t20 -49.5t6.5 -55.5t-6.5 -55.5t-20 -49t-34 -34.5t-48.5 -13t-48.5 13t-34 34.5
t-20 49t-6.5 55.5zM611 310q3 45 27 77t73 32q54 0 77 -32t23 -77h-200z" />
    <glyph glyph-name="Scaron" unicode="&#x160;" 
d="M51 18q47 -15 103 -22.5t105 -7.5q58 0 113.5 10.5t98.5 36.5t69 70.5t26 112.5q0 63 -24.5 101t-61 61t-79.5 35t-79.5 23t-61 26t-24.5 43q0 23 13 36t32 19.5t40.5 8t39.5 1.5q40 0 79.5 -7.5t75.5 -24.5l12 144q-35 12 -82 19t-98 7q-53 0 -107 -10t-97.5 -34
t-71.5 -65.5t-28 -104.5q0 -64 24.5 -102t61 -60.5t79.5 -35t79.5 -25t61 -29.5t24.5 -50q0 -21 -9.5 -34.5t-25.5 -21t-37 -10t-43 -2.5q-58 0 -107 13t-85 33zM498 879h-111l-83 -78l-79 78h-111l109 -144h162z" />
    <glyph glyph-name="scaron" unicode="&#x161;" horiz-adv-x="500" 
d="M36 13q40 -13 84 -19t105 -6q44 0 87.5 7.5t78 27t56 53.5t21.5 86q0 49 -20 79t-49.5 47t-64.5 25.5t-64.5 16t-49.5 17.5t-20 30q0 11 7.5 18t19.5 11t26.5 5.5t29.5 1.5q34 0 72.5 -9t67.5 -26l14 125q-44 17 -90 23.5t-93 6.5q-39 0 -78.5 -9.5t-71.5 -30t-52 -52.5
t-20 -77q0 -47 19 -75t47.5 -44.5t61.5 -25t61.5 -16.5t47.5 -19.5t19 -33.5q0 -27 -22.5 -34.5t-50.5 -7.5q-49 0 -93 11t-76 25zM443 729h-111l-83 -78l-79 78h-111l109 -144h162z" />
    <glyph glyph-name="Ydieresis" unicode="&#x178;" horiz-adv-x="722" 
d="M269 0h186v263l256 435h-214l-135 -280l-137 280h-214l258 -435v-263zM404 735h144v144h-144v-144zM176 735h144v144h-144v-144z" />
    <glyph glyph-name="Zcaron" unicode="&#x17d;" 
d="M570 698h-535v-138h323l-332 -412v-148h546v138h-344l342 412v148zM498 879h-111l-83 -78l-79 78h-111l109 -144h162z" />
    <glyph glyph-name="zcaron" unicode="&#x17e;" horiz-adv-x="500" 
d="M26 0h448v132h-242l238 245v144h-439v-132h233l-238 -245v-144zM443 729h-111l-83 -78l-79 78h-111l109 -144h162z" />
    <glyph glyph-name="florin" unicode="&#x192;" horiz-adv-x="612" 
d="M103 314h105l-77 -362q-5 -20 -17.5 -34t-41.5 -14q-14 0 -28.5 6t-22.5 14l-21 -120q29 -14 59 -20t55 -6q34 0 65 7t57 28t46.5 60.5t34.5 104.5l72 336h124v108h-99l18 83q3 14 7 28t10.5 25.5t17 18.5t26.5 7q19 0 34 -8t24 -18l21 126q-33 16 -64 21t-63 5
q-45 0 -77.5 -13t-55 -37t-36.5 -57t-22 -73l-23 -108h-128v-108z" />
    <glyph glyph-name="circumflex" unicode="&#x2c6;" horiz-adv-x="333" 
d="M-26 585h125l69 78l65 -78h125l-109 144h-162z" />
    <glyph glyph-name="caron" unicode="&#x2c7;" horiz-adv-x="333" 
d="M359 729h-111l-83 -78l-79 78h-111l109 -144h162z" />
    <glyph glyph-name="breve" unicode="&#x2d8;" horiz-adv-x="333" 
d="M-22 729q8 -72 53.5 -114.5t135.5 -42.5t135.5 42.5t53.5 114.5h-76q-10 -42 -42 -57.5t-71 -15.5t-71 15.5t-42 57.5h-76z" />
    <glyph glyph-name="dotaccent" unicode="&#x2d9;" horiz-adv-x="333" 
d="M95 585h144v144h-144v-144z" />
    <glyph glyph-name="ring" unicode="&#x2da;" horiz-adv-x="333" 
d="M55 678q0 -23 9 -43.5t24 -35.5t35.5 -24t43.5 -9t43.5 9t35.5 24t24 35.5t9 43.5t-9 43.5t-24 35.5t-35.5 24t-43.5 9t-43.5 -9t-35.5 -24t-24 -35.5t-9 -43.5zM119 678q0 20 14 34t34 14t34 -14t14 -34t-14 -34t-34 -14t-34 14t-14 34z" />
    <glyph glyph-name="ogonek" unicode="&#x2db;" horiz-adv-x="333" 
d="M167 0q-20 -11 -41.5 -24.5t-38.5 -30t-28 -36t-11 -43.5q0 -43 25.5 -65.5t71.5 -22.5q26 0 47 4t38.5 13t33 23.5t29.5 36.5l-38 17q-11 -11 -27.5 -19.5t-34.5 -8.5q-17 0 -30 11t-13 30q0 16 7.5 32t20 30t28 27.5t30.5 25.5h-69z" />
    <glyph glyph-name="tilde" unicode="&#x2dc;" horiz-adv-x="333" 
d="M291 729q-7 -39 -50 -39q-14 0 -30.5 5.5t-35 12.5t-38 12.5t-39.5 5.5q-30 0 -52.5 -12t-38 -32t-24.5 -45.5t-12 -51.5h72q5 19 15.5 29t33.5 10q12 0 28.5 -5.5t35.5 -12.5t38.5 -12.5t39.5 -5.5q31 0 53.5 11.5t38.5 30.5t25 44.5t12 54.5h-72z" />
    <glyph glyph-name="hungarumlaut" unicode="&#x2dd;" horiz-adv-x="333" 
d="M-25 585h126l129 144h-187zM223 585h126l129 144h-187z" />
    <glyph glyph-name="endash" unicode="&#x2013;" horiz-adv-x="500" 
d="M0 206h500v126h-500v-126z" />
    <glyph glyph-name="emdash" unicode="&#x2014;" horiz-adv-x="1000" 
d="M0 206h1000v126h-1000v-126z" />
    <glyph glyph-name="quoteleft" unicode="&#x2018;" horiz-adv-x="333" 
d="M284 698h-137l-98 -271h168z" />
    <glyph glyph-name="quoteright" unicode="&#x2019;" horiz-adv-x="333" 
d="M49 427h137l98 271h-168z" />
    <glyph glyph-name="quotesinglbase" unicode="&#x201a;" horiz-adv-x="333" 
d="M49 -109h137l98 271h-168z" />
    <glyph glyph-name="quotedblleft" unicode="&#x201c;" 
d="M308 698h-137l-98 -271h168zM538 698h-137l-98 -271h168z" />
    <glyph glyph-name="quotedblright" unicode="&#x201d;" 
d="M73 427h137l98 271h-168zM303 427h137l98 271h-168z" />
    <glyph glyph-name="quotedblbase" unicode="&#x201e;" 
d="M73 -109h138l98 271h-169zM302 -109h138l98 271h-169z" />
    <glyph glyph-name="dagger" unicode="&#x2020;" 
d="M225 0h162v399h173v132h-173v167h-162v-167h-173v-132h173v-399z" />
    <glyph glyph-name="daggerdbl" unicode="&#x2021;" 
d="M225 0h162v135h173v120h-173v187h173v120h-173v136h-162v-136h-173v-120h173v-187h-173v-120h173v-135z" />
    <glyph glyph-name="bullet" unicode="&#x2022;" horiz-adv-x="500" 
d="M76 349q0 -36 13.5 -68t37.5 -55.5t55.5 -37.5t67.5 -14t68 14t55.5 37.5t37.5 55.5t14 68t-14 67.5t-37.5 55.5t-55.5 37.5t-68 13.5t-67.5 -13.5t-55.5 -37.5t-37.5 -55.5t-13.5 -67.5z" />
    <glyph glyph-name="ellipsis" unicode="&#x2026;" horiz-adv-x="1000" 
d="M83 0h168v162h-168v-162zM416 0h168v162h-168v-162zM749 0h168v162h-168v-162z" />
    <glyph glyph-name="perthousand" unicode="&#x2030;" horiz-adv-x="1000" 
d="M505 72q-15 0 -23.5 11t-12.5 27.5t-4.5 34.5t-0.5 33t0.5 33t4.5 34.5t12.5 27.5t23.5 11t23.5 -11t12.5 -27.5t4.5 -34.5t0.5 -33t-0.5 -33t-4.5 -34.5t-12.5 -27.5t-23.5 -11zM844 -12q44 0 74 15.5t48 42.5t25.5 62.5t7.5 75.5q0 42 -8 78t-26.5 62.5t-48 41
t-72.5 14.5q-46 0 -76 -15.5t-47.5 -42.5t-24.5 -62.5t-7 -75.5q0 -39 7 -74.5t24.5 -62.5t47.5 -43t76 -16zM844 72q-15 0 -23.5 11t-12.5 27.5t-4.5 34.5t-0.5 33t0.5 33t4.5 34.5t12.5 27.5t23.5 11t23.5 -11t12.5 -27.5t4.5 -34.5t0.5 -33t-0.5 -33t-4.5 -34.5
t-12.5 -27.5t-23.5 -11zM97 -22h78l389 742h-80zM156 318q44 0 74 15.5t48 42.5t25.5 62.5t7.5 75.5q0 42 -8 78t-26.5 62.5t-48 41t-72.5 14.5q-46 0 -76 -15.5t-47.5 -42.5t-24.5 -62.5t-7 -75.5q0 -39 7 -74.5t24.5 -62.5t47.5 -43t76 -16zM156 408q-15 0 -23.5 11
t-12.5 27.5t-4.5 34.5t-0.5 33t0.5 33t4.5 34.5t12.5 27.5t23.5 11t23.5 -11t12.5 -27.5t4.5 -34.5t0.5 -33t-0.5 -33t-4.5 -34.5t-12.5 -27.5t-23.5 -11zM505 -12q44 0 74 15.5t48 42.5t25.5 62.5t7.5 75.5q0 42 -8 78t-26.5 62.5t-48 41t-72.5 14.5q-46 0 -76 -15.5
t-47.5 -42.5t-24.5 -62.5t-7 -75.5q0 -39 7 -74.5t24.5 -62.5t47.5 -43t76 -16z" />
    <glyph glyph-name="guilsinglleft" unicode="&#x2039;" horiz-adv-x="333" 
d="M147 65h148l-110 204l110 204h-148l-119 -204z" />
    <glyph glyph-name="guilsinglright" unicode="&#x203a;" horiz-adv-x="333" 
d="M186 473h-148l110 -204l-110 -204h148l119 204z" />
    <glyph glyph-name="trademark" unicode="&#x2122;" horiz-adv-x="1000" 
d="M155 282h108v326h118v90h-344v-90h118v-326zM477 282h108v272h2l89 -272h88l89 272h2v-272h108v416h-154l-89 -242l-89 242h-154v-416z" />
    <glyph glyph-name="minus" unicode="&#x2212;" horiz-adv-x="600" 
d="M47 190h506v126h-506v-126z" />
    <glyph glyph-name="fraction" unicode="&#x2215;" horiz-adv-x="167" 
d="M-164 -22h109l387 742h-109z" />
    <glyph glyph-name="fi" unicode="&#xfb01;" horiz-adv-x="778" 
d="M119 0h180v395h128v126h-128v32q0 38 14.5 60.5t49.5 22.5q20 0 33 -2t24 -6l11 124q-17 3 -40 6.5t-52 3.5q-54 0 -94.5 -11t-68 -35.5t-41 -64.5t-13.5 -98v-32h-109v-126h106v-395zM521 0h180v521h-180v-521zM701 738h-180v-132h180v132z" />
    <glyph glyph-name="fl" unicode="&#xfb02;" horiz-adv-x="778" 
d="M119 0h180v395h128v126h-128v32q0 38 14.5 60.5t49.5 22.5q20 0 33 -2t24 -6l11 124q-17 3 -40 6.5t-52 3.5q-54 0 -94.5 -11t-68 -35.5t-41 -64.5t-13.5 -98v-32h-109v-126h106v-395zM521 0h180v750h-180v-750z" />
    </font>
</defs>
</svg>
